<?xml version="1.0" encoding="UTF-8"?>
<svg version="1.1" xmlns="http://www.w3.org/2000/svg" width="512" height="512">
<path d="M0 0 C0.66283648 -0.0060911 1.32567297 -0.01218221 2.00859541 -0.01845789 C4.22810834 -0.03509804 6.44704823 -0.03031094 8.66661072 -0.0255127 C10.25837806 -0.03285231 11.85014007 -0.04143822 13.44189453 -0.05117798 C17.76408237 -0.07341004 22.08607968 -0.07632396 26.40831685 -0.07443047 C30.01446335 -0.07431088 33.6205693 -0.08286966 37.22670454 -0.09120798 C45.73111478 -0.11044677 54.23542686 -0.11332356 62.73985291 -0.10656738 C71.52076437 -0.09992023 80.30125643 -0.12281681 89.08208281 -0.15988111 C96.61677989 -0.19053437 104.15134172 -0.20194309 111.68609995 -0.1980443 C116.18831319 -0.19597289 120.69019986 -0.20151663 125.1923542 -0.22593689 C129.42374331 -0.24813059 133.65444778 -0.24638854 137.88583946 -0.22600937 C139.44070589 -0.22258655 140.99561777 -0.22774294 142.55042267 -0.24199295 C144.6694326 -0.26007777 146.78609273 -0.24752256 148.9050293 -0.22705078 C150.09171235 -0.22776329 151.2783954 -0.2284758 152.50103855 -0.2292099 C155.38902283 0.39440918 155.38902283 0.39440918 157.27596188 2.69765472 C158.73449608 6.23143121 158.71650269 9.45616675 158.57652283 13.20690918 C158.56298767 13.89978027 158.54945251 14.59265137 158.5355072 15.30651855 C158.50041127 17.00282183 158.44661225 18.69872054 158.38902283 20.39440918 C159.5930072 20.37120605 160.79699158 20.34800293 162.03746033 20.32409668 C163.61297498 20.30534055 165.18849631 20.28714019 166.76402283 20.26940918 C167.55808533 20.25265137 168.35214783 20.23589355 169.17027283 20.21862793 C171.24394298 20.20105445 173.31785524 20.2910575 175.38902283 20.39440918 C178.26524793 23.27063429 177.69028287 25.39056843 177.76792908 29.41394043 C177.78492355 30.1095256 177.80191803 30.80511078 177.81942749 31.52177429 C177.87261452 33.75005965 177.91283803 35.9783286 177.95152283 38.20690918 C177.99559402 40.42467743 178.04249449 42.64230841 178.09432983 44.85990906 C178.14071809 46.88015031 178.178299 48.90058807 178.21543884 50.92102051 C178.36292902 53.87227619 178.70681212 56.52774948 179.38902283 59.39440918 C179.9226947 58.81884277 180.45636658 58.24327637 181.00621033 57.65026855 C183.44577758 55.04398348 185.91653063 52.46946401 188.38902283 49.89440918 C189.64779236 48.53509277 189.64779236 48.53509277 190.93199158 47.14831543 C198.07600656 39.78278061 198.07600656 39.78278061 202.33042908 39.17175293 C208.06050004 39.9483454 212.11004906 45.01157063 215.90977478 48.98205566 C217.32352222 50.45378551 218.77097989 51.88445337 220.22691345 53.31433105 C228.18897151 61.4233114 228.18897151 61.4233114 228.38902283 68.39440918 C226.32652283 70.89440918 226.32652283 70.89440918 223.38902283 73.39440918 C222.41315505 74.52534635 221.45550288 75.67218847 220.51402283 76.83190918 C217.93408384 79.89600124 215.12443479 82.38620281 212.04136658 84.92956543 C210.13760291 86.54344261 210.13760291 86.54344261 207.88902283 89.39440918 C205.92892716 91.74652398 204.21198134 93.47196075 201.88902283 95.39440918 C198.59030871 98.12905746 196.08151985 101.06421549 193.38902283 104.39440918 C191.07037589 106.77746297 188.77562354 109.08046798 186.19297695 111.17772007 C181.58784213 115.18083438 178.84915823 118.11504345 178.2442627 124.32261658 C178.18929477 126.59256574 178.18260074 128.86402228 178.21543884 131.13439941 C178.19783005 132.3809581 178.18022125 133.62751678 178.16207886 134.91184998 C178.12241964 138.30536283 178.1218373 141.6946044 178.13848233 145.08801532 C178.14596183 148.64546124 178.1010484 152.20223786 178.06137085 155.75941467 C177.99385279 162.48587288 177.96984201 169.21170269 177.96316999 175.93846899 C177.95163509 185.82737218 177.87986731 195.7158841 177.80133724 205.60445499 C177.79560131 206.32941132 177.78986538 207.05436766 177.78395563 207.80129236 C177.7725039 209.24621153 177.76093081 210.69112975 177.74923271 212.13604695 C177.71651123 216.36967091 177.69847636 220.60304192 177.69318116 224.8367871 C177.68766286 228.07794273 177.67087412 231.31905226 177.65684509 234.56018066 C177.66078781 236.32352753 177.66078781 236.32352753 177.66481018 238.12249756 C177.65495338 239.72262947 177.65495338 239.72262947 177.64489746 241.35508728 C177.64368173 242.28547034 177.64246599 243.2158534 177.64121342 244.17442989 C177.38902283 246.39440918 177.38902283 246.39440918 175.38902283 248.39440918 C172.6056757 248.64609146 172.6056757 248.64609146 168.98059082 248.64837646 C168.31537963 248.65149645 167.65016845 248.65461643 166.96479934 248.65783095 C164.72534028 248.66583807 162.48615015 248.65947689 160.24668884 248.65319824 C158.64536886 248.65590693 157.04405013 248.65946717 155.44273376 248.66381836 C151.08532082 248.67295991 146.72800225 248.66939067 142.37058759 248.66306019 C137.81691048 248.65800843 133.26324163 248.66268942 128.70956421 248.66583252 C121.06030319 248.66947495 113.41108073 248.66466621 105.76182556 248.65515137 C96.91179198 248.64427017 88.06185057 248.64778884 79.21181923 248.65880418 C71.62197789 248.66787382 64.03216434 248.6691638 56.44231933 248.66392684 C51.90553682 248.66080486 47.36879765 248.66040396 42.8320179 248.66699982 C38.56636609 248.67276782 34.30083332 248.66878641 30.0351944 248.6572113 C28.46743658 248.65456163 26.89966878 248.65533504 25.3319149 248.65973663 C23.19595313 248.66518158 21.0603756 248.65837102 18.92443848 248.64837646 C17.72778344 248.64762241 16.53112841 248.64686836 15.2982111 248.64609146 C12.38902283 248.39440918 12.38902283 248.39440918 9.38902283 246.39440918 C9.04844666 244.51501465 9.04844666 244.51501465 9.09605408 242.26159668 C9.11055603 241.05310059 9.11055603 241.05310059 9.12535095 239.82019043 C9.15048767 238.97843262 9.17562439 238.1366748 9.20152283 237.26940918 C9.22182556 235.9951709 9.22182556 235.9951709 9.24253845 234.69519043 C9.27794064 232.59466081 9.33174882 230.49445625 9.38902283 228.39440918 C8.11285095 228.42921387 6.83667908 228.46401855 5.52183533 228.49987793 C3.85257762 228.52801149 2.18330572 228.55531211 0.51402283 228.58190918 C-0.32773499 228.6070459 -1.1694928 228.63218262 -2.03675842 228.65808105 C-3.24525452 228.67258301 -3.24525452 228.67258301 -4.47816467 228.68737793 C-5.59360657 228.7109436 -5.59360657 228.7109436 -6.73158264 228.73498535 C-7.35178284 228.62259521 -7.97198303 228.51020508 -8.61097717 228.39440918 C-11.09458159 224.66900256 -10.84256387 222.76377945 -10.80628967 218.32019043 C-10.80345978 217.63635788 -10.80062988 216.95252533 -10.79771423 216.24797058 C-10.78653401 214.06743753 -10.76143409 211.88731773 -10.73597717 209.70690918 C-10.72594455 208.22709741 -10.71681919 206.74727919 -10.70863342 205.26745605 C-10.68660198 201.64297318 -10.65208719 198.01873152 -10.61097717 194.39440918 C-11.37386047 194.41398682 -12.13674377 194.43356445 -12.92274475 194.45373535 C-14.41777527 194.47657593 -14.41777527 194.47657593 -15.94300842 194.49987793 C-16.93276672 194.51945557 -17.92252502 194.5390332 -18.942276 194.5592041 C-21.61097717 194.39440918 -21.61097717 194.39440918 -24.29847717 192.70690918 C-25.89063284 189.90168252 -26.245146 188.56525333 -25.61097717 185.39440918 C-24.29847717 183.08190918 -24.29847717 183.08190918 -21.61097717 181.39440918 C-17.87706879 181.05593979 -14.37480789 181.21517915 -10.61097717 181.39440918 C-10.61097717 175.78440918 -10.61097717 170.17440918 -10.61097717 164.39440918 C-12.52910217 164.45628418 -14.44722717 164.51815918 -16.42347717 164.58190918 C-22.06674425 164.76395005 -22.06674425 164.76395005 -24.50941467 163.10534668 C-25.61097717 161.39440918 -25.61097717 161.39440918 -25.42347717 157.83190918 C-24.61097717 154.39440918 -24.61097717 154.39440918 -22.61097717 152.39440918 C-18.59903351 152.11657375 -14.63650355 152.30875968 -10.61097717 152.39440918 C-10.61097717 146.78440918 -10.61097717 141.17440918 -10.61097717 135.39440918 C-13.63832092 135.52461751 -16.66566467 135.65482585 -19.69300842 135.78503418 C-22.61097717 135.39440918 -22.61097717 135.39440918 -24.47425842 133.53894043 C-25.877843 130.89094066 -26.06591925 129.35153271 -25.61097717 126.39440918 C-24.47425842 124.75378418 -24.47425842 124.75378418 -22.61097717 123.39440918 C-18.5783864 122.98953059 -14.67384813 123.26334883 -10.61097717 123.39440918 C-10.61097717 117.78440918 -10.61097717 112.17440918 -10.61097717 106.39440918 C-13.08493551 106.45951335 -15.55889384 106.52461751 -18.03285217 106.58972168 C-20.78853574 106.38095777 -22.34503087 105.96628184 -24.61097717 104.39440918 C-25.72265495 100.64249669 -26.17451538 98.49330869 -24.36097717 94.95690918 C-19.89477863 92.41929637 -15.68384395 93.15284409 -10.61097717 93.39440918 C-10.61097717 87.78440918 -10.61097717 82.17440918 -10.61097717 76.39440918 C-13.48816467 76.48722168 -13.48816467 76.48722168 -16.42347717 76.58190918 C-22.06674425 76.76395005 -22.06674425 76.76395005 -24.50941467 75.10534668 C-25.61097717 73.39440918 -25.61097717 73.39440918 -25.42347717 69.83190918 C-24.61097717 66.39440918 -24.61097717 66.39440918 -22.61097717 64.39440918 C-18.59903351 64.11657375 -14.63650355 64.30875968 -10.61097717 64.39440918 C-10.61097717 58.78440918 -10.61097717 53.17440918 -10.61097717 47.39440918 C-13.63832092 47.52461751 -16.66566467 47.65482585 -19.69300842 47.78503418 C-22.61097717 47.39440918 -22.61097717 47.39440918 -24.47425842 45.53894043 C-25.877843 42.89094066 -26.06591925 41.35153271 -25.61097717 38.39440918 C-24.47425842 36.75378418 -24.47425842 36.75378418 -22.61097717 35.39440918 C-19.69300842 35.10144043 -19.69300842 35.10144043 -16.42347717 35.20690918 C-15.33679749 35.23397949 -14.2501178 35.2610498 -13.13050842 35.28894043 C-11.88334045 35.34114746 -11.88334045 35.34114746 -10.61097717 35.39440918 C-10.63192444 34.44074463 -10.6528717 33.48708008 -10.67445374 32.5045166 C-10.74686485 28.9656069 -10.79277988 25.42676262 -10.83070374 21.8873291 C-10.85081697 20.35564156 -10.87811167 18.82403079 -10.91273499 17.29260254 C-10.96127032 15.09066845 -10.98394714 12.88974936 -11.00160217 10.68737793 C-11.02224731 10.00290085 -11.04289246 9.31842377 -11.06416321 8.61320496 C-11.06640166 3.86817079 -11.06640166 3.86817079 -8.9957819 1.71417999 C-5.85072897 -0.02631851 -3.59097435 0.01127973 0 0 Z " fill="#FDB602" transform="translate(154.61097717285156,131.6055908203125)"/>
<path d="M0 0 C0.66283648 -0.0060911 1.32567297 -0.01218221 2.00859541 -0.01845789 C4.22810834 -0.03509804 6.44704823 -0.03031094 8.66661072 -0.0255127 C10.25837806 -0.03285231 11.85014007 -0.04143822 13.44189453 -0.05117798 C17.76408237 -0.07341004 22.08607968 -0.07632396 26.40831685 -0.07443047 C30.01446335 -0.07431088 33.6205693 -0.08286966 37.22670454 -0.09120798 C45.73111478 -0.11044677 54.23542686 -0.11332356 62.73985291 -0.10656738 C71.52076437 -0.09992023 80.30125643 -0.12281681 89.08208281 -0.15988111 C96.61677989 -0.19053437 104.15134172 -0.20194309 111.68609995 -0.1980443 C116.18831319 -0.19597289 120.69019986 -0.20151663 125.1923542 -0.22593689 C129.42374331 -0.24813059 133.65444778 -0.24638854 137.88583946 -0.22600937 C139.44070589 -0.22258655 140.99561777 -0.22774294 142.55042267 -0.24199295 C144.6694326 -0.26007777 146.78609273 -0.24752256 148.9050293 -0.22705078 C150.09171235 -0.22776329 151.2783954 -0.2284758 152.50103855 -0.2292099 C155.38902283 0.39440918 155.38902283 0.39440918 157.27596188 2.69765472 C158.73449608 6.23143121 158.71650269 9.45616675 158.57652283 13.20690918 C158.56298767 13.89978027 158.54945251 14.59265137 158.5355072 15.30651855 C158.50041127 17.00282183 158.44661225 18.69872054 158.38902283 20.39440918 C159.5930072 20.37120605 160.79699158 20.34800293 162.03746033 20.32409668 C163.61297498 20.30534055 165.18849631 20.28714019 166.76402283 20.26940918 C167.55808533 20.25265137 168.35214783 20.23589355 169.17027283 20.21862793 C171.24394298 20.20105445 173.31785524 20.2910575 175.38902283 20.39440918 C178.26524793 23.27063429 177.69028287 25.39056843 177.76792908 29.41394043 C177.78492355 30.1095256 177.80191803 30.80511078 177.81942749 31.52177429 C177.87261452 33.75005965 177.91283803 35.9783286 177.95152283 38.20690918 C177.99559402 40.42467743 178.04249449 42.64230841 178.09432983 44.85990906 C178.14071809 46.88015031 178.178299 48.90058807 178.21543884 50.92102051 C178.36292902 53.87227619 178.70681212 56.52774948 179.38902283 59.39440918 C179.9226947 58.81884277 180.45636658 58.24327637 181.00621033 57.65026855 C183.44577758 55.04398348 185.91653063 52.46946401 188.38902283 49.89440918 C189.64779236 48.53509277 189.64779236 48.53509277 190.93199158 47.14831543 C198.07600656 39.78278061 198.07600656 39.78278061 202.33042908 39.17175293 C208.06050004 39.9483454 212.11004906 45.01157063 215.90977478 48.98205566 C217.32352222 50.45378551 218.77097989 51.88445337 220.22691345 53.31433105 C228.18897151 61.4233114 228.18897151 61.4233114 228.38902283 68.39440918 C226.32652283 70.89440918 226.32652283 70.89440918 223.38902283 73.39440918 C222.41315505 74.52534635 221.45550288 75.67218847 220.51402283 76.83190918 C217.93408384 79.89600124 215.12443479 82.38620281 212.04136658 84.92956543 C210.13760291 86.54344261 210.13760291 86.54344261 207.88902283 89.39440918 C205.92892716 91.74652398 204.21198134 93.47196075 201.88902283 95.39440918 C198.59030871 98.12905746 196.08151985 101.06421549 193.38902283 104.39440918 C191.07037589 106.77746297 188.77562354 109.08046798 186.19297695 111.17772007 C181.58784213 115.18083438 178.84915823 118.11504345 178.2442627 124.32261658 C178.18929477 126.59256574 178.18260074 128.86402228 178.21543884 131.13439941 C178.19783005 132.3809581 178.18022125 133.62751678 178.16207886 134.91184998 C178.12241964 138.30536283 178.1218373 141.6946044 178.13848233 145.08801532 C178.14596183 148.64546124 178.1010484 152.20223786 178.06137085 155.75941467 C177.99385279 162.48587288 177.96984201 169.21170269 177.96316999 175.93846899 C177.95163509 185.82737218 177.87986731 195.7158841 177.80133724 205.60445499 C177.79560131 206.32941132 177.78986538 207.05436766 177.78395563 207.80129236 C177.7725039 209.24621153 177.76093081 210.69112975 177.74923271 212.13604695 C177.71651123 216.36967091 177.69847636 220.60304192 177.69318116 224.8367871 C177.68766286 228.07794273 177.67087412 231.31905226 177.65684509 234.56018066 C177.66078781 236.32352753 177.66078781 236.32352753 177.66481018 238.12249756 C177.65495338 239.72262947 177.65495338 239.72262947 177.64489746 241.35508728 C177.64368173 242.28547034 177.64246599 243.2158534 177.64121342 244.17442989 C177.38902283 246.39440918 177.38902283 246.39440918 175.38902283 248.39440918 C172.6056757 248.64609146 172.6056757 248.64609146 168.98059082 248.64837646 C168.31537963 248.65149645 167.65016845 248.65461643 166.96479934 248.65783095 C164.72534028 248.66583807 162.48615015 248.65947689 160.24668884 248.65319824 C158.64536886 248.65590693 157.04405013 248.65946717 155.44273376 248.66381836 C151.08532082 248.67295991 146.72800225 248.66939067 142.37058759 248.66306019 C137.81691048 248.65800843 133.26324163 248.66268942 128.70956421 248.66583252 C121.06030319 248.66947495 113.41108073 248.66466621 105.76182556 248.65515137 C96.91179198 248.64427017 88.06185057 248.64778884 79.21181923 248.65880418 C71.62197789 248.66787382 64.03216434 248.6691638 56.44231933 248.66392684 C51.90553682 248.66080486 47.36879765 248.66040396 42.8320179 248.66699982 C38.56636609 248.67276782 34.30083332 248.66878641 30.0351944 248.6572113 C28.46743658 248.65456163 26.89966878 248.65533504 25.3319149 248.65973663 C23.19595313 248.66518158 21.0603756 248.65837102 18.92443848 248.64837646 C17.72778344 248.64762241 16.53112841 248.64686836 15.2982111 248.64609146 C12.38902283 248.39440918 12.38902283 248.39440918 9.38902283 246.39440918 C9.04844666 244.51501465 9.04844666 244.51501465 9.09605408 242.26159668 C9.11055603 241.05310059 9.11055603 241.05310059 9.12535095 239.82019043 C9.15048767 238.97843262 9.17562439 238.1366748 9.20152283 237.26940918 C9.22182556 235.9951709 9.22182556 235.9951709 9.24253845 234.69519043 C9.27794064 232.59466081 9.33174882 230.49445625 9.38902283 228.39440918 C8.11285095 228.42921387 6.83667908 228.46401855 5.52183533 228.49987793 C3.85257762 228.52801149 2.18330572 228.55531211 0.51402283 228.58190918 C-0.32773499 228.6070459 -1.1694928 228.63218262 -2.03675842 228.65808105 C-3.24525452 228.67258301 -3.24525452 228.67258301 -4.47816467 228.68737793 C-5.59360657 228.7109436 -5.59360657 228.7109436 -6.73158264 228.73498535 C-7.35178284 228.62259521 -7.97198303 228.51020508 -8.61097717 228.39440918 C-11.09458159 224.66900256 -10.84256387 222.76377945 -10.80628967 218.32019043 C-10.80345978 217.63635788 -10.80062988 216.95252533 -10.79771423 216.24797058 C-10.78653401 214.06743753 -10.76143409 211.88731773 -10.73597717 209.70690918 C-10.72594455 208.22709741 -10.71681919 206.74727919 -10.70863342 205.26745605 C-10.68660198 201.64297318 -10.65208719 198.01873152 -10.61097717 194.39440918 C-11.37386047 194.41398682 -12.13674377 194.43356445 -12.92274475 194.45373535 C-14.41777527 194.47657593 -14.41777527 194.47657593 -15.94300842 194.49987793 C-16.93276672 194.51945557 -17.92252502 194.5390332 -18.942276 194.5592041 C-21.61097717 194.39440918 -21.61097717 194.39440918 -24.29847717 192.70690918 C-25.89063284 189.90168252 -26.245146 188.56525333 -25.61097717 185.39440918 C-24.29847717 183.08190918 -24.29847717 183.08190918 -21.61097717 181.39440918 C-17.87706879 181.05593979 -14.37480789 181.21517915 -10.61097717 181.39440918 C-10.61097717 175.78440918 -10.61097717 170.17440918 -10.61097717 164.39440918 C-12.52910217 164.45628418 -14.44722717 164.51815918 -16.42347717 164.58190918 C-22.06674425 164.76395005 -22.06674425 164.76395005 -24.50941467 163.10534668 C-25.61097717 161.39440918 -25.61097717 161.39440918 -25.42347717 157.83190918 C-24.61097717 154.39440918 -24.61097717 154.39440918 -22.61097717 152.39440918 C-18.59903351 152.11657375 -14.63650355 152.30875968 -10.61097717 152.39440918 C-10.61097717 146.78440918 -10.61097717 141.17440918 -10.61097717 135.39440918 C-13.63832092 135.52461751 -16.66566467 135.65482585 -19.69300842 135.78503418 C-22.61097717 135.39440918 -22.61097717 135.39440918 -24.47425842 133.53894043 C-25.877843 130.89094066 -26.06591925 129.35153271 -25.61097717 126.39440918 C-24.47425842 124.75378418 -24.47425842 124.75378418 -22.61097717 123.39440918 C-18.5783864 122.98953059 -14.67384813 123.26334883 -10.61097717 123.39440918 C-10.61097717 117.78440918 -10.61097717 112.17440918 -10.61097717 106.39440918 C-13.08493551 106.45951335 -15.55889384 106.52461751 -18.03285217 106.58972168 C-20.78853574 106.38095777 -22.34503087 105.96628184 -24.61097717 104.39440918 C-25.72265495 100.64249669 -26.17451538 98.49330869 -24.36097717 94.95690918 C-19.89477863 92.41929637 -15.68384395 93.15284409 -10.61097717 93.39440918 C-10.61097717 87.78440918 -10.61097717 82.17440918 -10.61097717 76.39440918 C-13.48816467 76.48722168 -13.48816467 76.48722168 -16.42347717 76.58190918 C-22.06674425 76.76395005 -22.06674425 76.76395005 -24.50941467 75.10534668 C-25.61097717 73.39440918 -25.61097717 73.39440918 -25.42347717 69.83190918 C-24.61097717 66.39440918 -24.61097717 66.39440918 -22.61097717 64.39440918 C-18.59903351 64.11657375 -14.63650355 64.30875968 -10.61097717 64.39440918 C-10.61097717 58.78440918 -10.61097717 53.17440918 -10.61097717 47.39440918 C-13.63832092 47.52461751 -16.66566467 47.65482585 -19.69300842 47.78503418 C-22.61097717 47.39440918 -22.61097717 47.39440918 -24.47425842 45.53894043 C-25.877843 42.89094066 -26.06591925 41.35153271 -25.61097717 38.39440918 C-24.47425842 36.75378418 -24.47425842 36.75378418 -22.61097717 35.39440918 C-19.69300842 35.10144043 -19.69300842 35.10144043 -16.42347717 35.20690918 C-15.33679749 35.23397949 -14.2501178 35.2610498 -13.13050842 35.28894043 C-11.88334045 35.34114746 -11.88334045 35.34114746 -10.61097717 35.39440918 C-10.63192444 34.44074463 -10.6528717 33.48708008 -10.67445374 32.5045166 C-10.74686485 28.9656069 -10.79277988 25.42676262 -10.83070374 21.8873291 C-10.85081697 20.35564156 -10.87811167 18.82403079 -10.91273499 17.29260254 C-10.96127032 15.09066845 -10.98394714 12.88974936 -11.00160217 10.68737793 C-11.02224731 10.00290085 -11.04289246 9.31842377 -11.06416321 8.61320496 C-11.06640166 3.86817079 -11.06640166 3.86817079 -8.9957819 1.71417999 C-5.85072897 -0.02631851 -3.59097435 0.01127973 0 0 Z M0.38902283 11.39440918 C0.38902283 19.64440918 0.38902283 27.89440918 0.38902283 36.39440918 C3.02902283 36.72440918 5.66902283 37.05440918 8.38902283 37.39440918 C9.38902283 38.39440918 9.38902283 38.39440918 9.57652283 40.83190918 C9.38902283 43.39440918 9.38902283 43.39440918 7.38902283 45.39440918 C3.92402283 45.88940918 3.92402283 45.88940918 0.38902283 46.39440918 C0.38902283 52.66440918 0.38902283 58.93440918 0.38902283 65.39440918 C2.69902283 65.72440918 5.00902283 66.05440918 7.38902283 66.39440918 C9.38902283 68.39440918 9.38902283 68.39440918 9.51402283 71.01940918 C9.47277283 71.80315918 9.43152283 72.58690918 9.38902283 73.39440918 C6.41902283 74.05440918 3.44902283 74.71440918 0.38902283 75.39440918 C0.38902283 81.66440918 0.38902283 87.93440918 0.38902283 94.39440918 C3.02902283 95.05440918 5.66902283 95.71440918 8.38902283 96.39440918 C9.38902283 97.39440918 9.38902283 97.39440918 9.63902283 99.83190918 C9.55652283 100.67753418 9.47402283 101.52315918 9.38902283 102.39440918 C6.38902283 104.39440918 6.38902283 104.39440918 0.38902283 105.39440918 C0.38902283 111.66440918 0.38902283 117.93440918 0.38902283 124.39440918 C3.35902283 124.72440918 6.32902283 125.05440918 9.38902283 125.39440918 C9.51402283 128.26940918 9.51402283 128.26940918 9.38902283 131.39440918 C7.38902283 133.39440918 7.38902283 133.39440918 0.38902283 134.39440918 C0.38902283 140.66440918 0.38902283 146.93440918 0.38902283 153.39440918 C3.02902283 154.05440918 5.66902283 154.71440918 8.38902283 155.39440918 C9.38902283 156.39440918 9.38902283 156.39440918 9.51402283 158.89440918 C9.38902283 161.39440918 9.38902283 161.39440918 8.38902283 162.39440918 C5.74902283 162.72440918 3.10902283 163.05440918 0.38902283 163.39440918 C0.38902283 169.99440918 0.38902283 176.59440918 0.38902283 183.39440918 C3.02902283 183.72440918 5.66902283 184.05440918 8.38902283 184.39440918 C9.38902283 185.39440918 9.38902283 185.39440918 9.63902283 187.83190918 C9.55652283 188.67753418 9.47402283 189.52315918 9.38902283 190.39440918 C6.38902283 192.39440918 6.38902283 192.39440918 0.38902283 193.39440918 C0.38902283 201.31440918 0.38902283 209.23440918 0.38902283 217.39440918 C48.89902283 217.39440918 97.40902283 217.39440918 147.38902283 217.39440918 C147.38902283 194.29440918 147.38902283 171.19440918 147.38902283 147.39440918 C142.96757463 151.18422192 139.03944555 154.66158036 135.09605408 158.83581543 C134.12629238 159.84258248 133.15555801 160.84841335 132.1839447 161.85339355 C130.69199647 163.40057198 129.20623185 164.9518847 127.73643494 166.5201416 C121.03895846 173.64580821 114.89735862 178.40423678 105.38902283 181.39440918 C104.58343933 181.66519287 103.77785583 181.93597656 102.94786072 182.21496582 C100.81413891 182.90727931 98.67335476 183.53735171 96.51402283 184.14440918 C95.80761658 184.35194824 95.10121033 184.5594873 94.37339783 184.77331543 C90.41973142 185.91238289 86.49864666 187.02638316 82.38902283 187.39440918 C81.72902283 186.73440918 81.06902283 186.07440918 80.38902283 185.39440918 C80.56251515 182.96176767 80.91203216 180.77771606 81.38902283 178.39440918 C81.54273346 177.50398926 81.69644409 176.61356934 81.85481262 175.69616699 C85.0639122 158.99511212 90.71740774 149.58367517 103.73667908 139.20690918 C105.00855418 138.17879571 106.27982323 137.14993209 107.55050659 136.12034607 C108.19141141 135.60194184 108.83231623 135.08353762 109.4926424 134.54942417 C110.14044257 134.02510272 110.78824274 133.50078127 111.45567322 132.96057129 C112.11027369 132.43125724 112.76487417 131.90194319 113.43931103 131.35658932 C131.36846409 116.76058616 148.19732804 102.04858577 150.73765564 77.93443298 C152.48998746 55.55810646 149.49661664 33.83843449 147.38902283 11.39440918 C98.87902283 11.39440918 50.36902283 11.39440918 0.38902283 11.39440918 Z " fill="#141110" transform="translate(154.61097717285156,131.6055908203125)"/>
<path d="M0 0 C0.83921494 -0.0115361 1.67842987 -0.0230722 2.54307556 -0.03495789 C5.3278893 -0.06935261 8.11248108 -0.08778558 10.89746094 -0.10327148 C11.84797081 -0.11017439 12.79848068 -0.11707729 13.77779388 -0.12418938 C18.80970943 -0.16006307 23.84151226 -0.18358129 28.87353516 -0.19726562 C34.07046283 -0.21380633 39.26602797 -0.27220919 44.46249771 -0.34040928 C48.45856888 -0.38520602 52.45431419 -0.39876104 56.45061493 -0.40388298 C58.36600903 -0.41177772 60.28139246 -0.43142683 62.19654083 -0.46310616 C64.8807981 -0.50457198 67.56162569 -0.50171517 70.24609375 -0.48828125 C71.03489426 -0.51030609 71.82369476 -0.53233093 72.63639832 -0.55502319 C75.96126241 -0.49860261 78.0586849 -0.30737133 80.72244072 1.78151703 C83.66404362 4.99508901 85.63381463 7.69572086 85.62646484 12.18432617 C85.64515121 13.51072617 85.64515121 13.51072617 85.66421509 14.86392212 C85.64579559 15.79642792 85.6273761 16.72893372 85.60839844 17.68969727 C85.60989395 19.1552858 85.60989395 19.1552858 85.61141968 20.65048218 C85.60675772 22.7062803 85.58741543 24.7620919 85.55419922 26.81762695 C85.50686932 29.96091766 85.5131053 33.10082644 85.52636719 36.24438477 C85.51521647 38.24700911 85.50099847 40.24961922 85.48339844 42.25219727 C85.48613266 43.65702866 85.48613266 43.65702866 85.48892212 45.09024048 C85.39955109 49.206076 85.23514414 51.72262048 83.15673828 55.34350586 C78.52756432 59.40235446 73.92401684 59.63298589 67.97387695 59.61279297 C67.19274536 59.6179039 66.41161377 59.62301483 65.60681152 59.62828064 C63.0330431 59.64214366 60.45954344 59.64122241 57.88574219 59.63891602 C56.09122112 59.64280466 54.29670097 59.64713967 52.50218201 59.65190125 C48.74385594 59.6593563 44.98562382 59.65907728 41.22729492 59.65380859 C36.41765673 59.64801385 31.60840362 59.66494849 26.79882908 59.68815327 C23.09357973 59.70290427 19.38842285 59.70376046 15.68314934 59.70064354 C13.91017837 59.70115603 12.13720213 59.70638017 10.36425972 59.71645546 C7.88231697 59.72882966 5.40112078 59.72202271 2.91918945 59.71044922 C2.19120651 59.71809296 1.46322357 59.72573669 0.71318054 59.73361206 C-3.95793307 59.68561007 -7.15948592 58.82044528 -11.11816406 56.33813477 C-14.64209534 51.39932342 -14.57148348 46.61416253 -14.55175781 40.77563477 C-14.55699966 39.86612061 -14.56224152 38.95660645 -14.56764221 38.01953125 C-14.5740441 36.10328184 -14.57274924 34.18699303 -14.56420898 32.27075195 C-14.55569044 29.34718634 -14.58449927 26.42557059 -14.61621094 23.50219727 C-14.617823 21.63501035 -14.61724533 19.76781999 -14.61425781 17.90063477 C-14.62549179 17.03172607 -14.63672577 16.16281738 -14.64830017 15.26757812 C-14.53052986 4.95992616 -10.15884992 0.04852862 0 0 Z " fill="#EA7704" transform="translate(193.1181640625,167.661865234375)"/>
<path d="M0 0 C3.98857838 0.6974721 5.36244193 2.18017899 8.14599609 5.08959961 C9.06509766 6.03254883 9.98419922 6.97549805 10.93115234 7.94702148 C11.88356804 8.9536224 12.83538451 9.96079061 13.78662109 10.96850586 C15.6726137 12.93005197 17.5659686 14.88434377 19.45849609 16.83959961 C20.28961914 17.71414795 21.12074219 18.58869629 21.97705078 19.48974609 C23.86904849 21.57721485 23.86904849 21.57721485 26.03662109 22.53100586 C26.34912109 24.71850586 26.34912109 24.71850586 26.03662109 27.53100586 C23.91162109 29.90600586 23.91162109 29.90600586 21.03662109 32.53100586 C20.06493083 33.66553433 19.10711488 34.81205512 18.16162109 35.96850586 C15.58168211 39.03259792 12.77203306 41.52279949 9.68896484 44.06616211 C7.78520117 45.68003929 7.78520117 45.68003929 5.53662109 48.53100586 C3.11727272 51.43422391 0.62779529 53.63308498 -2.27197266 56.01928711 C-3.91185792 57.48495824 -5.18923757 58.9778636 -6.52587891 60.71850586 C-8.96337891 63.53100586 -8.96337891 63.53100586 -11.78451633 64.93241882 C-17.2892522 67.70064148 -21.36672943 71.54444885 -24.96337891 76.53100586 C-26.29909504 80.82758955 -26.28431198 84.81880901 -26.17456055 89.29272461 C-26.18416809 90.52967575 -26.19377563 91.76662689 -26.20367432 93.0410614 C-26.22032919 96.4042382 -26.19325512 99.76156261 -26.14631581 103.12407684 C-26.10795886 106.65057367 -26.12740969 110.17675678 -26.14073181 113.70336914 C-26.15743718 120.36997074 -26.12441883 127.03531952 -26.07241005 133.70170212 C-26.00964521 142.03411468 -26.00772574 150.36636416 -26.00830078 158.69897461 C-26.00838979 161.61409523 -26.00817464 164.5292154 -26.00743103 167.44433594 C-26.00719827 168.50265137 -26.00719827 168.50265137 -26.00696081 169.58234692 C-26.00407618 174.45427679 -25.98267598 179.32591459 -25.95411682 184.19775391 C-25.94794846 185.48502884 -25.94178009 186.77230377 -25.9354248 188.09858704 C-25.92327025 190.51030367 -25.9071955 192.92200478 -25.88658142 195.33366394 C-25.88191864 196.39055923 -25.87725586 197.44745453 -25.87245178 198.53637695 C-25.86591615 199.45808685 -25.85938051 200.37979675 -25.85264683 201.32943726 C-25.96337891 203.53100586 -25.96337891 203.53100586 -26.96337891 205.53100586 C-48.32905024 205.55433282 -69.69471949 205.57198403 -91.06040096 205.58281803 C-100.98013166 205.58798142 -110.89985445 205.59502493 -120.81958008 205.60644531 C-129.46234869 205.61639084 -138.10511159 205.62285897 -146.74788576 205.62509435 C-151.32710354 205.62640168 -155.90630495 205.62948894 -160.4855175 205.63673592 C-164.79049596 205.64349407 -169.09545123 205.64562324 -173.40043449 205.64411354 C-174.98515956 205.64438996 -176.56988536 205.6463963 -178.15460587 205.65021133 C-180.30878302 205.65514539 -182.4628712 205.65400523 -184.61705017 205.65126038 C-185.82552077 205.65218217 -187.03399137 205.65310396 -188.2790823 205.65405369 C-190.96337891 205.53100586 -190.96337891 205.53100586 -191.96337891 204.53100586 C-192.25724043 200.80875987 -192.11147062 199.75314343 -189.96337891 196.53100586 C-188.97337891 196.53100586 -187.98337891 196.53100586 -186.96337891 196.53100586 C-186.63337891 197.19100586 -186.30337891 197.85100586 -185.96337891 198.53100586 C-184.97337891 197.54100586 -184.97337891 197.54100586 -183.96337891 196.53100586 C-181.39029503 196.2849102 -181.39029503 196.2849102 -178.06625366 196.29049683 C-176.80979538 196.2877475 -175.5533371 196.28499817 -174.25880432 196.28216553 C-172.85873319 196.28924429 -171.45866301 196.29651392 -170.05859375 196.30395508 C-168.5903372 196.30451897 -167.12208008 196.30420306 -165.65382385 196.30307007 C-161.66021891 196.3024947 -157.66673338 196.31427865 -153.67315626 196.32821798 C-149.50245737 196.34069479 -145.33175594 196.34189343 -141.16104126 196.3442688 C-133.25977907 196.35049256 -125.35857203 196.36691546 -117.45733416 196.38696778 C-106.782813 196.41347204 -96.10827683 196.42429218 -85.43373108 196.43597221 C-68.61023902 196.45479545 -51.78686336 196.49463513 -34.96337891 196.53100586 C-34.96337891 160.56100586 -34.96337891 124.59100586 -34.96337891 87.53100586 C-39.55463395 91.43346458 -39.55463395 91.43346458 -43.96337891 95.53100586 C-44.07259127 98.25881586 -44.11760878 100.96223771 -44.12109375 103.69091797 C-44.12617447 104.54616562 -44.13125519 105.40141327 -44.13648987 106.28257751 C-44.14721723 108.14599001 -44.15582806 110.00941557 -44.1626091 111.8728466 C-44.17435561 114.81817846 -44.19379638 117.76336085 -44.21572876 120.70863342 C-44.27749417 129.0848395 -44.33145483 137.46103097 -44.36474609 145.83740234 C-44.38563555 150.95446767 -44.42089256 156.07126219 -44.46550369 161.18817329 C-44.47971034 163.1430398 -44.48839658 165.09795423 -44.49155807 167.0528698 C-44.49644054 169.78276989 -44.51952854 172.51194521 -44.546875 175.24169922 C-44.5423658 176.46285431 -44.5423658 176.46285431 -44.5377655 177.7086792 C-44.57138062 179.95640564 -44.57138062 179.95640564 -44.96337891 183.53100586 C-45.95337891 184.19100586 -46.94337891 184.85100586 -47.96337891 185.53100586 C-47.96337891 184.54100586 -47.96337891 183.55100586 -47.96337891 182.53100586 C-47.30337891 182.53100586 -46.64337891 182.53100586 -45.96337891 182.53100586 C-45.96337891 154.15100586 -45.96337891 125.77100586 -45.96337891 96.53100586 C-46.62337891 96.53100586 -47.28337891 96.53100586 -47.96337891 96.53100586 C-48.14900391 95.60288086 -48.14900391 95.60288086 -48.33837891 94.65600586 C-48.83535247 92.33979754 -48.83535247 92.33979754 -50.96337891 90.53100586 C-49.62943654 86.58900512 -48.01162643 84.21087369 -45.06445312 81.29150391 C-44.26377411 80.49105148 -43.46309509 79.69059906 -42.63815308 78.8658905 C-41.77352448 78.01674576 -40.90889587 77.16760101 -40.01806641 76.29272461 C-39.1330545 75.41195755 -38.2480426 74.53119049 -37.33621216 73.62373352 C-34.99064897 71.29209923 -32.63874699 68.96711733 -30.28356934 66.64520264 C-27.87841913 64.27083039 -25.48181893 61.8878621 -23.08447266 59.50561523 C-18.38526427 54.839467 -13.67759348 50.18199018 -8.96337891 45.53100586 C-9.95337891 42.56100586 -9.95337891 42.56100586 -10.96337891 39.53100586 C-8.98337891 38.87100586 -7.00337891 38.21100586 -4.96337891 37.53100586 C-4.96337891 35.88100586 -4.96337891 34.23100586 -4.96337891 32.53100586 C-3.64337891 33.52100586 -2.32337891 34.51100586 -0.96337891 35.53100586 C2.48863748 34.05379164 4.68624046 32.09306585 7.28662109 29.40600586 C7.99302734 28.68155273 8.69943359 27.95709961 9.42724609 27.21069336 C10.22388672 26.37924805 10.22388672 26.37924805 11.03662109 25.53100586 C9.55940687 22.07898947 7.59868109 19.8813865 4.91162109 17.28100586 C4.18716797 16.57459961 3.46271484 15.86819336 2.71630859 15.14038086 C2.16201172 14.60928711 1.60771484 14.07819336 1.03662109 13.53100586 C-1.45699462 14.73482034 -3.64480973 15.98529308 -5.96337891 17.53100586 C-5.94275391 16.60288086 -5.92212891 15.67475586 -5.90087891 14.71850586 C-5.80568287 11.50814575 -5.80568287 11.50814575 -6.96337891 8.53100586 C-13.13590444 13.845304 -13.13590444 13.845304 -18.96337891 19.53100586 C-19.62337891 19.20100586 -20.28337891 18.87100586 -20.96337891 18.53100586 C-18.1132068 15.5065523 -15.22952056 12.5162777 -12.33837891 9.53100586 C-11.53013672 8.67249023 -10.72189453 7.81397461 -9.88916016 6.92944336 C-9.09638672 6.11733398 -8.30361328 5.30522461 -7.48681641 4.46850586 C-6.76413574 3.7144043 -6.04145508 2.96030273 -5.296875 2.18334961 C-2.96337891 0.53100586 -2.96337891 0.53100586 0 0 Z " fill="#090607" transform="translate(356.96337890625,172.468994140625)"/>
<path d="M0 0 C0 35.97 0 71.94 0 109 C-48.51 109 -97.02 109 -147 109 C-147 105.7 -147 102.4 -147 99 C-145.96686519 98.99503478 -145.96686519 98.99503478 -144.91285896 98.98996925 C-128.17160745 98.90882991 -111.43045555 98.81676754 -94.68933296 98.71247292 C-86.59352645 98.66230207 -78.49773029 98.61585979 -70.40185547 98.578125 C-63.34737905 98.54523478 -56.29298196 98.50542022 -49.23859298 98.45720994 C-45.50163658 98.43191524 -41.764733 98.41014289 -38.02771378 98.39665604 C-33.86097012 98.3814888 -29.69448025 98.35086596 -25.52783203 98.31884766 C-23.65911942 98.31560738 -23.65911942 98.31560738 -21.75265503 98.31230164 C-20.05728607 98.29555641 -20.05728607 98.29555641 -18.32766724 98.2784729 C-17.34134874 98.27294214 -16.35503025 98.26741138 -15.33882332 98.26171303 C-12.80887266 98.22493055 -12.80887266 98.22493055 -11 96 C-10.82424937 93.2402065 -10.77234609 90.5810107 -10.80810547 87.82177734 C-10.81091019 86.97602142 -10.8137149 86.1302655 -10.81660461 85.25888062 C-10.82311399 83.41784268 -10.83371249 81.5768158 -10.84786606 79.73582077 C-10.86730641 76.81809044 -10.86953665 73.90085067 -10.86599731 70.98306274 C-10.85629707 62.68558443 -10.85579581 54.3885813 -10.92089844 46.09130859 C-10.95944422 41.01819022 -10.95896246 35.94634045 -10.93332291 30.8731575 C-10.93091308 28.94271837 -10.94294096 27.01220344 -10.96990585 25.08195114 C-11.19782607 8.06371592 -11.19782607 8.06371592 -6.06689453 2.75244141 C-2.58754007 0 -2.58754007 0 0 0 Z " fill="#E97806" transform="translate(322,260)"/>
<path d="M0 0 C3.72846137 3.33599175 6.84967385 7.1295993 10 11 C8.65323083 14.00023948 7.16088099 16.08720005 4.83627319 18.40423584 C3.86031441 19.38431862 3.86031441 19.38431862 2.86463928 20.38420105 C1.79541481 21.44263969 1.79541481 21.44263969 0.70458984 22.52246094 C-0.04672714 23.27406998 -0.79804413 24.02567902 -1.5721283 24.80006409 C-4.05639513 27.28293771 -6.54767095 29.7586523 -9.0390625 32.234375 C-10.76299849 33.95458084 -12.48649341 35.6752288 -14.20956421 37.39630127 C-18.74584251 41.92494332 -23.28809494 46.44754715 -27.831604 50.96893311 C-32.46686953 55.58374014 -37.09647863 60.20421396 -41.7265625 64.82421875 C-50.81217086 73.88837732 -59.90390788 82.9463628 -69 92 C-72.61424479 90.62961742 -75.02113458 89.3900893 -77.75 86.625 C-78.34296875 86.03976562 -78.9359375 85.45453125 -79.546875 84.8515625 C-81.17092836 82.78220418 -81.71417677 81.60612491 -82 79 C-80.89765549 77.27403641 -80.89765549 77.27403641 -79.14129639 75.51983643 C-78.48228836 74.8496196 -77.82328033 74.17940277 -77.14430237 73.48887634 C-76.03791664 72.40238548 -76.03791664 72.40238548 -74.90917969 71.29394531 C-74.14361252 70.52282913 -73.37804535 69.75171295 -72.58927917 68.95722961 C-70.04562838 66.40173082 -67.48430152 63.86478645 -64.921875 61.328125 C-63.1555581 59.56351783 -61.39012689 57.79802371 -59.62554932 56.03167725 C-55.92073137 52.32851549 -52.20776774 48.63372805 -48.48779297 44.94580078 C-44.18431129 40.67921358 -39.89505301 36.3987368 -35.61347079 32.11018109 C-31.49808469 27.98849428 -27.37412993 23.87549338 -23.24594879 19.76662445 C-21.4880727 18.01579857 -19.73216569 16.26299345 -17.97823334 14.50821686 C-15.52898179 12.06075543 -13.07020762 9.62329761 -10.60839844 7.18847656 C-9.87890488 6.4560524 -9.14941132 5.72362823 -8.39781189 4.9690094 C-7.39238091 3.9806031 -7.39238091 3.9806031 -6.36663818 2.972229 C-5.78553158 2.39485111 -5.20442497 1.81747322 -4.60570908 1.22259903 C-3 0 -3 0 0 0 Z " fill="#F8B606" transform="translate(339,205)"/>
<path d="M0 0 C0.66 0 1.32 0 2 0 C1.979375 0.9075 1.95875 1.815 1.9375 2.75 C1.81715138 5.83846284 1.81715138 5.83846284 2.7263031 7.94525146 C3 10 3 10 1.60169983 11.99957275 C0.88888351 12.70128601 0.1760672 13.40299927 -0.55834961 14.12597656 C-1.35925522 14.92650452 -2.16016083 15.72703247 -2.9853363 16.55181885 C-3.86544876 17.40612488 -4.74556122 18.26043091 -5.65234375 19.140625 C-6.54160049 20.02280701 -7.43085724 20.90498901 -8.34706116 21.81390381 C-10.71396017 24.15751513 -13.09107584 26.48970455 -15.47381592 28.81713867 C-17.90233818 31.1945203 -20.31677356 33.58611328 -22.73242188 35.9765625 C-27.47537064 40.66428666 -32.23229506 45.33746397 -37 50 C-35.52120195 53.99620718 -34.18632521 56.08866797 -30.875 58.8125 C-29.78832031 59.71935547 -29.78832031 59.71935547 -28.6796875 60.64453125 C-27.84824219 61.31548828 -27.84824219 61.31548828 -27 62 C-22.62960457 60.1603458 -20.18030415 57.08141883 -17.09765625 53.58203125 C-15 52 -15 52 -12.328125 52.1328125 C-10 53 -10 53 -8.6875 55.0625 C-8.3471875 56.0215625 -8.3471875 56.0215625 -8 57 C-8.66 57 -9.32 57 -10 57 C-10 57.99 -10 58.98 -10 60 C-10.66 60 -11.32 60 -12 60 C-12.07605469 60.721875 -12.15210938 61.44375 -12.23046875 62.1875 C-13.96861953 68.5401323 -20.20480454 73.38277977 -25.734375 76.58203125 C-28.78742709 77.91036192 -31.82649438 78.99041269 -35 80 C-35.69174316 80.22026855 -36.38348633 80.44053711 -37.09619141 80.66748047 C-56.50046026 86.77395599 -56.50046026 86.77395599 -59.9375 85 C-62.90127104 79.42113686 -58.46674391 69.13427653 -56.796875 63.5 C-51.88541256 47.996076 -42.42656913 38.16647033 -30.74029541 27.38775635 C-28.21878955 25.03974149 -25.7563587 22.63115612 -23.28515625 20.23046875 C-19.67425589 16.74477418 -16.04671962 13.27792668 -12.37207031 9.859375 C-11.64642883 9.18358398 -10.92078735 8.50779297 -10.17315674 7.81152344 C-4.40111186 3 -4.40111186 3 -1 3 C-0.67 2.01 -0.34 1.02 0 0 Z " fill="#0C0806" transform="translate(295,234)"/>
<path d="M0 0 C1.28657249 0.00371613 1.28657249 0.00371613 2.59913635 0.00750732 C3.50169159 0.00239639 4.40424683 -0.00271454 5.33415222 -0.00798035 C8.3282274 -0.02192083 11.32207353 -0.02091622 14.31617737 -0.01861572 C16.39121588 -0.02250024 18.46625361 -0.0268344 20.54129028 -0.03160095 C24.89507116 -0.03907278 29.24877096 -0.03876495 33.60255432 -0.0335083 C39.18940862 -0.02771281 44.7759315 -0.04464204 50.36273098 -0.06785297 C54.64947458 -0.08256553 58.93613792 -0.08346539 63.2229023 -0.08034325 C65.28304259 -0.08085772 67.34318723 -0.08611897 69.40330315 -0.09615517 C72.28130162 -0.1084541 75.15864876 -0.10176728 78.03663635 -0.09014893 C78.89232712 -0.09779266 79.74801788 -0.1054364 80.62963867 -0.11331177 C86.44063507 -0.0613052 86.44063507 -0.0613052 88.63667393 1.64539814 C89.88258362 3.28216553 89.88258362 3.28216553 89.69508362 5.84466553 C88.88258362 8.28216553 88.88258362 8.28216553 86.88258362 10.28216553 C83.94079094 10.48098954 81.09311013 10.55482007 78.15016174 10.54095459 C77.24600021 10.54445923 76.34183868 10.54796387 75.41027832 10.55157471 C72.4113861 10.56040175 69.41272838 10.55453943 66.41383362 10.54779053 C64.33639989 10.5491369 62.25896646 10.55107719 60.18153381 10.55358887 C55.82355251 10.55654145 51.46565308 10.55223816 47.10768127 10.54290771 C41.51182285 10.53151313 35.91615625 10.53807189 30.32030487 10.55005264 C26.02931768 10.55726761 21.73837623 10.55498498 17.4473877 10.54979706 C15.38363625 10.54845956 13.31988069 10.55011178 11.25613403 10.55475616 C8.37564538 10.55981543 5.49547067 10.55211962 2.61500549 10.54095459 C1.75571945 10.54500305 0.89643341 10.54905151 0.0111084 10.55322266 C-5.8888886 10.51069331 -5.8888886 10.51069331 -8.11741638 8.28216553 C-8.36741638 5.28216553 -8.36741638 5.28216553 -8.11741638 2.28216553 C-5.4856839 -0.34956696 -3.58286478 0.03250471 0 0 Z " fill="#E87804" transform="translate(183.11741638183594,240.71783447265625)"/>
<path d="M0 0 C0.70748383 -0.00350464 1.41496765 -0.00700928 2.14389038 -0.01062012 C4.48868549 -0.01944128 6.8331802 -0.01358644 9.17797852 -0.00683594 C10.8046118 -0.00818263 12.43124469 -0.0101232 14.05787659 -0.01263428 C17.47010117 -0.01558618 20.88222116 -0.01128637 24.29443359 -0.00195312 C28.67056083 0.00943245 33.04644251 0.00288811 37.42256069 -0.00909805 C40.7828405 -0.01632261 44.14306203 -0.01402583 47.50334358 -0.00884247 C49.1169036 -0.00750715 50.73046889 -0.00914958 52.34402275 -0.01380157 C54.59928281 -0.01887562 56.85414463 -0.01114406 59.109375 0 C61.03558937 0.00238678 61.03558937 0.00238678 63.00071716 0.00482178 C66.11938477 0.25878906 66.11938477 0.25878906 69.11938477 2.25878906 C69.49438477 5.25878906 69.49438477 5.25878906 69.11938477 8.25878906 C65.41089861 10.73111316 63.53773412 10.51209093 59.109375 10.51757812 C58.40013885 10.52108276 57.69090271 10.5245874 56.96017456 10.52819824 C54.61600964 10.53700048 52.2721465 10.53117248 49.92797852 10.52441406 C48.30037884 10.525761 46.67277957 10.52770177 45.04518127 10.5302124 C41.63473682 10.53316149 38.22439713 10.5288724 34.81396484 10.51953125 C30.436647 10.50812774 26.05957416 10.51470315 21.68226528 10.52667618 C18.32202803 10.53389289 14.96184916 10.53160789 11.60161018 10.52642059 C9.98722365 10.52508404 8.37283186 10.52673202 6.75845146 10.5313797 C4.50549078 10.53644288 2.25293074 10.52873839 0 10.51757812 C-1.28334732 10.51598694 -2.56669464 10.51439575 -3.88893127 10.51275635 C-6.88061523 10.25878906 -6.88061523 10.25878906 -8.88061523 8.25878906 C-9.13061523 5.25878906 -9.13061523 5.25878906 -8.88061523 2.25878906 C-6.01133217 -0.610494 -4.01811652 0.00498195 0 0 Z " fill="#E97803" transform="translate(183.880615234375,260.7412109375)"/>
<path d="M0 0 C0.66 0 1.32 0 2 0 C2 35.97 2 71.94 2 109 C-46.51 109 -95.02 109 -145 109 C-145 105.7 -145 102.4 -145 99 C-101.44 99 -57.88 99 -13 99 C-13 99.33 -13 99.66 -13 100 C-77.845 100.495 -77.845 100.495 -144 101 C-144 102.98 -144 104.96 -144 107 C-96.48 107 -48.96 107 0 107 C-0.36854637 72.90850717 -0.36854637 72.90850717 -0.74829102 38.81713867 C-0.81628418 32.22912598 -0.81628418 32.22912598 -0.8467865 29.14668274 C-0.86910428 26.99012749 -0.89346238 24.83359278 -0.91941833 22.67707825 C-0.95830048 19.41389905 -0.99074342 16.15071361 -1.02172852 12.88745117 C-1.03469499 11.9239358 -1.04766146 10.96042044 -1.06102085 9.96770763 C-1.06803988 9.09033601 -1.07505892 8.21296438 -1.08229065 7.30900574 C-1.09473485 6.16275616 -1.09473485 6.16275616 -1.10743046 4.99335003 C-1 3 -1 3 0 0 Z " fill="#C7731D" transform="translate(320,260)"/>
<path d="M0 0 C1.72716751 -0.01441132 1.72716751 -0.01441132 3.48922729 -0.02911377 C5.37038742 -0.03548859 5.37038742 -0.03548859 7.28955078 -0.04199219 C8.56839142 -0.04769226 9.84723206 -0.05339233 11.16482544 -0.05926514 C13.87681477 -0.06978378 16.58877438 -0.0756206 19.30078125 -0.07910156 C22.77685865 -0.08458465 26.252544 -0.10860442 29.72849846 -0.13707352 C33.0405088 -0.16017409 36.352464 -0.16214809 39.66455078 -0.16699219 C40.91460907 -0.17933899 42.16466736 -0.19168579 43.4526062 -0.20440674 C44.61035553 -0.20140564 45.76810486 -0.19840454 46.9609375 -0.1953125 C47.98162323 -0.19895813 49.00230896 -0.20260376 50.05392456 -0.20635986 C52.60986328 0.16113281 52.60986328 0.16113281 54.44338989 1.52325439 C56.08550683 3.82899742 55.96404879 5.39848581 55.60986328 8.16113281 C52.95377574 10.81722035 51.70681469 10.41423543 47.99853516 10.41992188 C46.82391724 10.4262262 45.64929932 10.43253052 44.43908691 10.43902588 C42.52815247 10.43295319 42.52815247 10.43295319 40.57861328 10.42675781 C39.27661987 10.42867126 37.97462646 10.43058472 36.63317871 10.43255615 C33.875847 10.43550672 31.1186448 10.43121205 28.36132812 10.421875 C24.82359255 10.41048034 21.28616041 10.4170402 17.74843597 10.42901993 C14.37930394 10.43797675 11.01025394 10.43170921 7.64111328 10.42675781 C6.36715698 10.43080627 5.09320068 10.43485474 3.78063965 10.43902588 C2.60602173 10.43272156 1.43140381 10.42641724 0.22119141 10.41992188 C-0.81646362 10.41833069 -1.85411865 10.4167395 -2.92321777 10.4151001 C-5.39013672 10.16113281 -5.39013672 10.16113281 -7.39013672 8.16113281 C-6.67817281 0.04474421 -6.67817281 0.04474421 0 0 Z " fill="#E97903" transform="translate(182.39013671875,279.8388671875)"/>
<path d="M0 0 C1.4219014 -0.01429802 1.4219014 -0.01429802 2.87252808 -0.02888489 C3.89959869 -0.02797348 4.92666931 -0.02706207 5.98486328 -0.02612305 C7.56450363 -0.03255074 7.56450363 -0.03255074 9.17605591 -0.03910828 C11.40707683 -0.04485934 13.6381165 -0.04534615 15.86914062 -0.04101562 C19.28434288 -0.03786104 22.69867482 -0.06128713 26.11376953 -0.08666992 C28.27913302 -0.08894335 30.44449884 -0.08964621 32.60986328 -0.08862305 C33.63288544 -0.09783279 34.65590759 -0.10704254 35.70993042 -0.11653137 C36.66416901 -0.11030258 37.61840759 -0.10407379 38.6015625 -0.09765625 C39.43936249 -0.09828568 40.27716248 -0.0989151 41.14035034 -0.0995636 C43.92349684 0.35528072 45.32596286 1.44487742 47.43017578 3.2746582 C46.68017578 8.0246582 46.68017578 8.0246582 44.43017578 10.2746582 C42.34289551 10.52862549 42.34289551 10.52862549 39.73681641 10.53344727 C38.27520081 10.54290375 38.27520081 10.54290375 36.78405762 10.55255127 C35.20122986 10.54647858 35.20122986 10.54647858 33.58642578 10.5402832 C32.50639282 10.54219666 31.42635986 10.54411011 30.31359863 10.54608154 C28.02709724 10.54744428 25.74058814 10.54374172 23.45410156 10.53540039 C19.94464824 10.52470232 16.43570685 10.53529293 12.92626953 10.5480957 C10.70882048 10.54677412 8.49137175 10.54421177 6.27392578 10.5402832 C5.21870728 10.54433167 4.16348877 10.54838013 3.07629395 10.55255127 C2.10188354 10.54624695 1.12747314 10.53994263 0.12353516 10.53344727 C-0.73647095 10.53185608 -1.59647705 10.53026489 -2.48254395 10.52862549 C-4.56982422 10.2746582 -4.56982422 10.2746582 -6.56982422 8.2746582 C-6.81982422 5.2746582 -6.81982422 5.2746582 -6.56982422 2.2746582 C-4.10248938 -0.19267663 -3.39535604 0.01870793 0 0 Z " fill="#E97503" transform="translate(181.56982421875,299.725341796875)"/>
<path d="M0 0 C48.51 0 97.02 0 147 0 C147.226875 13.468125 147.45375 26.93625 147.6875 40.8125 C147.78764404 45.04553955 147.88778809 49.2785791 147.9909668 53.63989258 C148.04064941 58.85876465 148.04064941 58.85876465 148.04988098 61.31156921 C148.06663788 63.00391064 148.10504977 64.69613071 148.16133118 66.38761902 C148.65883622 82.14443278 148.65883622 82.14443278 142.9892931 88.23602581 C140.77460365 90.32186451 138.4554751 92.2062745 136 94 C135.34 93.01 134.68 92.02 134 91 C134.66 90.34 135.32 89.68 136 89 C136.99 89 137.98 89 139 89 C139.144375 88.38125 139.28875 87.7625 139.4375 87.125 C140 85 140 85 141 83 C142.32 83 143.64 83 145 83 C145 56.27 145 29.54 145 2 C97.48 2 49.96 2 1 2 C1 9.26 1 16.52 1 24 C2.98 24 4.96 24 7 24 C7 24.33 7 24.66 7 25 C4.69 25 2.38 25 0 25 C0 16.75 0 8.5 0 0 Z " fill="#D2A926" transform="translate(155,143)"/>
<path d="M0 0 C0.66 0 1.32 0 2 0 C1.979375 0.9075 1.95875 1.815 1.9375 2.75 C1.83346405 5.83705497 1.83346405 5.83705497 2.67247009 7.99214172 C3 10 3 10 1.95924377 11.68913269 C1.13939247 12.52399956 1.13939247 12.52399956 0.30297852 13.37573242 C-0.61939857 14.33143379 -0.61939857 14.33143379 -1.56040955 15.30644226 C-2.24043533 15.982621 -2.92046112 16.65879974 -3.62109375 17.35546875 C-4.31380875 18.05771072 -5.00652374 18.7599527 -5.7202301 19.48347473 C-7.19278905 20.96821698 -8.67191753 22.4464676 -10.15698242 23.91870117 C-12.41845761 26.16855546 -14.64621072 28.44834184 -16.87304688 30.73242188 C-18.30795082 32.17121322 -19.74474203 33.60812535 -21.18359375 35.04296875 C-21.84540146 35.72522018 -22.50720917 36.40747162 -23.18907166 37.11039734 C-27.72267929 41.53399438 -30.63463619 42.88183605 -37 43 C-37.75 40.875 -37.75 40.875 -38 38 C-35.28415591 33.30257887 -31.91469162 29.62004056 -28.09765625 25.83203125 C-27.53807724 25.27053879 -26.97849823 24.70904633 -26.40196228 24.13053894 C-25.22526443 22.95248799 -24.04606875 21.77692718 -22.86450195 20.60375977 C-21.06420992 18.81419973 -19.27486683 17.01418883 -17.48632812 15.21289062 C-16.33657836 14.06446221 -15.18620847 12.91665423 -14.03515625 11.76953125 C-13.50479263 11.23511917 -12.97442902 10.70070709 -12.42799377 10.15010071 C-5.18791039 3 -5.18791039 3 -1 3 C-0.67 2.01 -0.34 1.02 0 0 Z " fill="#0A0605" transform="translate(295,234)"/>
<path d="M0 0 C3.3 0 6.6 0 10 0 C10.22369947 5.95881843 10.38635071 11.91515786 10.49438477 17.87719727 C10.53944592 19.9017192 10.60071767 21.92595147 10.67895508 23.94946289 C11.31324442 40.78507742 11.31324442 40.78507742 7.99169922 46.38720703 C5.76840143 48.63517386 3.72681556 50.41036053 1 52 C0.67 52 0.34 52 0 52 C0 34.84 0 17.68 0 0 Z " fill="#E0770B" transform="translate(312,163)"/>
<path d="M0 0 C-1.48943051 3.6488178 -3.56518912 5.44262148 -6.551651 7.95375061 C-11.20407045 12.53480416 -12.06891828 15.79625088 -12.2244873 22.22061157 C-12.20768921 23.38200653 -12.19089111 24.54340149 -12.17358398 25.73999023 C-12.19119278 26.98654892 -12.20880157 28.2331076 -12.22694397 29.5174408 C-12.26660318 32.91095365 -12.26718553 36.30019522 -12.25054049 39.69360614 C-12.24306099 43.25105206 -12.28797443 46.80782868 -12.32765198 50.36500549 C-12.39517003 57.0914637 -12.41918082 63.81729351 -12.42585284 70.54405981 C-12.43738774 80.432963 -12.50915552 90.32147492 -12.58768559 100.21004581 C-12.59342152 100.93500215 -12.59915745 101.65995848 -12.60506719 102.40688318 C-12.61651893 103.85180235 -12.62809202 105.29672057 -12.63979012 106.74163777 C-12.67251159 110.97526173 -12.69054647 115.20863274 -12.69584167 119.44237792 C-12.70135996 122.68353355 -12.71814871 125.92464308 -12.73217773 129.16577148 C-12.72823502 130.92911835 -12.72823502 130.92911835 -12.72421265 132.72808838 C-12.73406944 134.32822029 -12.73406944 134.32822029 -12.74412537 135.9606781 C-12.7453411 136.89106116 -12.74655684 137.82144423 -12.74780941 138.78002071 C-13 141 -13 141 -15 143 C-17.79172707 143.24609566 -17.79172707 143.24609566 -21.42861938 143.24050903 C-22.09594727 143.24221788 -22.76327515 143.24392673 -23.4508251 143.24568737 C-25.69730485 143.2489938 -27.94348896 143.23795988 -30.18994141 143.22705078 C-31.79612725 143.22648692 -33.4023136 143.22680275 -35.00849915 143.22793579 C-39.37812091 143.22851127 -43.7476336 143.21672553 -48.11722994 143.20278788 C-52.6803104 143.1903129 -57.24339316 143.18911258 -61.80648804 143.18673706 C-70.45148325 143.18051276 -79.09642808 143.16408913 -87.74140108 143.14403808 C-97.58164011 143.12170858 -107.42188151 143.11069308 -117.26213956 143.10064721 C-137.5081212 143.0797237 -157.75405743 143.04452932 -178 143 C-178 142.67 -178 142.34 -178 142 C-124.54 141.67 -71.08 141.34 -16 141 C-14.74484216 138.48968432 -14.89461675 136.82794805 -14.92253113 134.01882935 C-14.93008423 132.96482437 -14.93763733 131.9108194 -14.94541931 130.82487488 C-14.95851639 129.66337418 -14.97161346 128.50187347 -14.98510742 127.30517578 C-15.004548 124.77613674 -15.02350162 122.24709392 -15.04203796 119.7180481 C-15.04759559 119.05058728 -15.05315322 118.38312647 -15.05887926 117.69543958 C-15.09925667 112.79628354 -15.11998062 107.89732641 -15.1287384 102.99801636 C-15.13002202 102.28655775 -15.13130563 101.57509915 -15.13262814 100.84208119 C-15.13750981 97.90527113 -15.1416857 94.96846061 -15.14541471 92.03164887 C-15.15669348 83.70578908 -15.18722859 75.38107557 -15.27758789 67.05566406 C-15.34924571 60.44175356 -15.37798563 53.82919462 -15.35742456 47.21490657 C-15.34812926 43.71793505 -15.35971735 40.22397923 -15.42339134 36.72751236 C-15.8408121 12.63516492 -15.8408121 12.63516492 -9.70998859 5.75462151 C-3.5498788 0 -3.5498788 0 0 0 Z " fill="#A5A5A6" transform="translate(345,237)"/>
<path d="M0 0 C3.68069887 1.53643852 5.98775204 3.78150945 8.75 6.625 C9.54921875 7.44226563 10.3484375 8.25953125 11.171875 9.1015625 C11.77515625 9.72804687 12.3784375 10.35453125 13 11 C11.46356148 14.68069887 9.21849055 16.98775204 6.375 19.75 C5.55773437 20.54921875 4.74046875 21.3484375 3.8984375 22.171875 C3.27195312 22.77515625 2.64546875 23.3784375 2 24 C-1.68069887 22.46356148 -3.98775204 20.21849055 -6.75 17.375 C-7.54921875 16.55773437 -8.3484375 15.74046875 -9.171875 14.8984375 C-9.77515625 14.27195313 -10.3784375 13.64546875 -11 13 C-9.46356148 9.31930113 -7.21849055 7.01224796 -4.375 4.25 C-3.55773437 3.45078125 -2.74046875 2.6515625 -1.8984375 1.828125 C-0.95871094 0.92320312 -0.95871094 0.92320312 0 0 Z " fill="#EB7705" transform="translate(356,185)"/>
<path d="M0 0 C0.33 0 0.66 0 1 0 C1.12377604 5.74739758 1.21442248 11.49401627 1.2746582 17.24243164 C1.29977281 19.19699623 1.33387131 21.15146717 1.37719727 23.10571289 C1.43798434 25.91836668 1.46623983 28.72977702 1.48828125 31.54296875 C1.51408768 32.41398727 1.5398941 33.2850058 1.56648254 34.18241882 C1.56852005 38.60898723 1.44925852 40.41929229 -1.34301758 44.02856445 C-5.68891364 47.25314506 -9.48287834 47.15325072 -14.6809082 47.16113281 C-15.46174774 47.16609772 -16.24258728 47.17106262 -17.04708862 47.17617798 C-19.63166179 47.19078895 -22.21617356 47.19760007 -24.80078125 47.203125 C-26.59815981 47.20887764 -28.39553835 47.21463536 -30.19291687 47.22039795 C-33.96316819 47.23090512 -37.73339821 47.23674954 -41.50366211 47.24023438 C-46.32902595 47.24571636 -51.15410723 47.26973922 -55.97938251 47.29820633 C-59.69319983 47.31685333 -63.40694939 47.32203942 -67.12080956 47.32357025 C-68.89937064 47.32659301 -70.67793063 47.33460881 -72.45644569 47.34775543 C-74.94815021 47.36485805 -77.4391684 47.36292549 -79.9309082 47.35644531 C-80.66203323 47.3656601 -81.39315826 47.37487488 -82.1464386 47.3843689 C-86.82893405 47.346325 -90.04369985 46.51389497 -94 44 C-96 41 -96 41 -95.625 38.8125 C-95.41875 38.214375 -95.2125 37.61625 -95 37 C-92.8614515 39.1385485 -92.57344937 40.13275314 -92 43 C-88.09336237 44.26565481 -84.15895615 44.16963493 -80.09790039 44.19287109 C-78.90938225 44.20513733 -78.90938225 44.20513733 -77.69685364 44.21765137 C-75.08046209 44.24242145 -72.46412434 44.25899635 -69.84765625 44.2734375 C-68.95289518 44.27876118 -68.05813412 44.28408485 -67.13625908 44.28956985 C-62.40375501 44.31625999 -57.671277 44.33565144 -52.9387207 44.35009766 C-49.02279407 44.36345731 -45.107386 44.39135274 -41.19165039 44.43212891 C-36.46021046 44.48139501 -31.72924217 44.50621044 -26.99755669 44.51332474 C-25.19580368 44.52004229 -23.39406141 44.53527752 -21.59245491 44.55921555 C-19.0715745 44.59081038 -16.55252028 44.59091356 -14.03149414 44.58349609 C-13.28899414 44.59990143 -12.54649414 44.61630676 -11.78149414 44.63320923 C-7.90586589 44.58655676 -6.14551204 44.11191925 -3.03924561 41.72276306 C-1.05288425 39.07061008 -0.37201564 38.06960043 -0.34057617 34.85229492 C-0.31111153 33.68164742 -0.31111153 33.68164742 -0.28105164 32.48735046 C-0.28498428 31.6600795 -0.28891693 30.83280853 -0.29296875 29.98046875 C-0.27028679 28.69261223 -0.27028679 28.69261223 -0.24714661 27.3787384 C-0.20430612 24.64805769 -0.19543541 21.91848314 -0.1875 19.1875 C-0.16435277 17.33135088 -0.13898695 15.475228 -0.11132812 13.61914062 C-0.04851209 9.07932946 -0.01614831 4.54020733 0 0 Z " fill="#E58102" transform="translate(276,180)"/>
<path d="M0 0 C0 14.85 0 29.7 0 45 C0.66 45.33 1.32 45.66 2 46 C1.34 46.66 0.68 47.32 0 48 C-0.64767793 50.57061311 -0.64767793 50.57061311 -1 53 C-0.236875 52.484375 0.52625 51.96875 1.3125 51.4375 C2.199375 50.963125 3.08625 50.48875 4 50 C4.99 50.33 5.98 50.66 7 51 C2.38 55.62 -2.24 60.24 -7 65 C-7.33 64.01 -7.66 63.02 -8 62 C-7.34 62 -6.68 62 -6 62 C-5.67 60.68 -5.34 59.36 -5 58 C-6.32 58 -7.64 58 -9 58 C-8.835 57.401875 -8.67 56.80375 -8.5 56.1875 C-7.8885876 53.88655664 -7.8885876 53.88655664 -8 51 C-6.53989502 49.7313208 -6.53989502 49.7313208 -5.05029297 48.43701172 C-1.57167281 45.10869679 -1.27461369 42.46305254 -1.16775513 37.76419067 C-1.18139603 36.39978348 -1.18139603 36.39978348 -1.1953125 35.0078125 C-1.18160614 34.06187225 -1.16789978 33.11593201 -1.15377808 32.1413269 C-1.11654209 29.13539798 -1.12018866 26.13112643 -1.125 23.125 C-1.10686877 21.08070342 -1.08606474 19.03642867 -1.0625 16.9921875 C-1.01070877 11.99451472 -0.99556528 6.99792638 -1 2 C-4.3 2 -7.6 2 -11 2 C-11 1.67 -11 1.34 -11 1 C-3.375 0 -3.375 0 0 0 Z " fill="#120703" transform="translate(323,161)"/>
<path d="M0 0 C1.98 0 3.96 0 6 0 C4.70893753 4.04185992 3.41704309 8.08345345 2.125 12.125 C1.76019531 13.26710938 1.39539063 14.40921875 1.01953125 15.5859375 C0.66503906 16.69453125 0.31054688 17.803125 -0.0546875 18.9453125 C-0.37937012 19.96125488 -0.70405273 20.97719727 -1.03857422 22.02392578 C-1.70773607 24.09530287 -2.41129728 26.15575062 -3.14111328 28.20654297 C-4.30870009 32.00402117 -3.74943319 34.50113362 -2 38 C-3.65 37.34 -5.3 36.68 -7 36 C-7 35.01 -7 34.02 -7 33 C-7.61875 32.896875 -8.2375 32.79375 -8.875 32.6875 C-11 32 -11 32 -13 29 C-12.01 29 -11.02 29 -10 29 C-9.34 25.7 -8.68 22.4 -8 19 C-6.02 18.67 -4.04 18.34 -2 18 C-1.855625 17.030625 -1.71125 16.06125 -1.5625 15.0625 C-1 12 -1 12 0 11 C0.07226502 9.14712498 0.0838122 7.29166122 0.0625 5.4375 C0.05347656 4.42558594 0.04445312 3.41367187 0.03515625 2.37109375 C0.02355469 1.58863281 0.01195312 0.80617188 0 0 Z " fill="#F2AF02" transform="translate(239,282)"/>
<path d="M0 0 C1.0828125 0.1546875 1.0828125 0.1546875 2.1875 0.3125 C-1.49082017 4.83865993 -5.22336363 8.70674999 -9.8125 12.3125 C-9.8125 10.6625 -9.8125 9.0125 -9.8125 7.3125 C-40.8325 7.6425 -71.8525 7.9725 -103.8125 8.3125 C-104.4725 6.9925 -105.1325 5.6725 -105.8125 4.3125 C-104.8225 4.6425 -103.8325 4.9725 -102.8125 5.3125 C-99.81132829 5.42991681 -96.8325545 5.49066646 -93.83056641 5.50537109 C-92.45207268 5.51763733 -92.45207268 5.51763733 -91.04573059 5.53015137 C-88.00184786 5.55498282 -84.95801161 5.57151369 -81.9140625 5.5859375 C-80.87496105 5.59126118 -79.8358596 5.59658485 -78.76527023 5.60206985 C-73.26767464 5.62878882 -67.77010168 5.64816968 -62.27246094 5.66259766 C-56.59041034 5.67926265 -50.90893781 5.72405978 -45.22710609 5.7749691 C-40.86051757 5.80859305 -36.49406728 5.82016963 -32.1273613 5.82582474 C-30.03255153 5.83254821 -27.93775119 5.84779858 -25.84306717 5.87171555 C-22.91263611 5.90327196 -19.98377843 5.90341834 -17.05322266 5.89599609 C-15.75477669 5.9206041 -15.75477669 5.9206041 -14.43009949 5.94570923 C-9.98716317 5.89961958 -8.39117102 5.81442872 -4.91073608 2.79556274 C-2.8125 0.3125 -2.8125 0.3125 0 0 Z " fill="#FAAE0A" transform="translate(279.8125,244.6875)"/>
<path d="M0 0 C7.20818345 -0.07594813 14.41626405 -0.12855678 21.62475586 -0.16479492 C24.07792008 -0.17989881 26.53105724 -0.20038321 28.98413086 -0.22631836 C32.50641555 -0.26263057 36.02834381 -0.27971036 39.55078125 -0.29296875 C40.65086014 -0.30845261 41.75093903 -0.32393646 42.88435364 -0.33988953 C44.41560127 -0.34022942 44.41560127 -0.34022942 45.9777832 -0.34057617 C46.87713089 -0.34723801 47.77647858 -0.35389984 48.70307922 -0.36076355 C51.47371264 0.0744032 52.35997943 0.75677067 54 3 C54.29296875 5.69921875 54.29296875 5.69921875 54.1875 8.6875 C54.14689453 10.17830078 54.14689453 10.17830078 54.10546875 11.69921875 C54.07066406 12.45847656 54.03585938 13.21773438 54 14 C53.34 13.67 52.68 13.34 52 13 C50.44313717 12.90497897 48.88226897 12.87205348 47.32250977 12.87060547 C46.35132706 12.86745331 45.38014435 12.86430115 44.37953186 12.86105347 C43.32745041 12.8630777 42.27536896 12.86510193 41.19140625 12.8671875 C39.57491432 12.86575241 39.57491432 12.86575241 37.92576599 12.86428833 C35.64346254 12.86360691 33.36115716 12.86545856 31.07885742 12.86962891 C27.58052216 12.87497247 24.0823156 12.86968529 20.58398438 12.86328125 C18.36979138 12.86394214 16.15559847 12.86522353 13.94140625 12.8671875 C12.89134903 12.86516327 11.84129181 12.86313904 10.75941467 12.86105347 C9.29791237 12.86578171 9.29791237 12.86578171 7.80688477 12.87060547 C6.94909927 12.87140106 6.09131378 12.87219666 5.20753479 12.87301636 C2.82344242 12.91372753 2.82344242 12.91372753 0 14 C0 13.34 0 12.68 0 12 C-0.66 11.67 -1.32 11.34 -2 11 C-2 8.03 -2 5.06 -2 2 C-1.34 2 -0.68 2 0 2 C0 1.34 0 0.68 0 0 Z M-1 3 C-1.33333333 6 -1.33333333 6 -1 9 C1.48729051 11.48729051 2.24703787 11.25621524 5.67749023 11.2746582 C6.64867294 11.28419022 7.61985565 11.29372223 8.62046814 11.30354309 C9.67254959 11.30263168 10.72463104 11.30172028 11.80859375 11.30078125 C12.88625504 11.30506638 13.96391632 11.3093515 15.07423401 11.31376648 C17.35652971 11.31951726 19.63884374 11.32000457 21.92114258 11.31567383 C25.41975081 11.31251602 28.91751217 11.33595702 32.41601562 11.36132812 C34.63020726 11.36360119 36.84440118 11.36430458 39.05859375 11.36328125 C40.10865097 11.372491 41.15870819 11.38170074 42.24058533 11.39118958 C43.70208763 11.38184639 43.70208763 11.38184639 45.19311523 11.37231445 C46.47979347 11.37325859 46.47979347 11.37325859 47.79246521 11.3742218 C50.48755164 10.91735013 51.40412163 10.19194975 53 8 C52.99843776 5.40882687 52.99843776 5.40882687 52 3 C48.79585809 0.8639054 47.96644303 0.74818458 44.28491211 0.74121094 C43.33059799 0.73490662 42.37628387 0.72860229 41.39305115 0.72210693 C40.36486771 0.7261554 39.33668427 0.73020386 38.27734375 0.734375 C36.6927108 0.73150482 36.6927108 0.73150482 35.07606506 0.72857666 C32.84261843 0.72721536 30.60916387 0.73090794 28.37573242 0.73925781 C24.94757423 0.74996852 21.51993883 0.73935499 18.09179688 0.7265625 C15.924478 0.7278839 13.75715946 0.73044587 11.58984375 0.734375 C10.55963608 0.73032654 9.52942841 0.72627808 8.46800232 0.72210693 C7.04125938 0.73156342 7.04125938 0.73156342 5.58569336 0.74121094 C4.32685585 0.74359772 4.32685585 0.74359772 3.04258728 0.74603271 C0.77477239 0.81558992 0.77477239 0.81558992 -1 3 Z " fill="#FCAD0F" transform="translate(176,299)"/>
<path d="M0 0 C0.99 0.495 0.99 0.495 2 1 C2.03758423 2.41478638 2.03758423 2.41478638 2.07592773 3.8581543 C2.17129809 7.37128663 2.27051725 10.88426708 2.37231445 14.3972168 C2.41551548 15.91507755 2.45720048 17.43298226 2.49731445 18.95092773 C2.55537812 21.13799259 2.61896656 23.32483918 2.68359375 25.51171875 C2.72025146 26.82615967 2.75690918 28.14060059 2.79467773 29.49487305 C2.96760636 32.44699698 3.32160714 35.12950496 4 38 C4.53367187 37.42443359 5.06734375 36.84886719 5.6171875 36.25585938 C8.05675475 33.6495743 10.52750781 31.07505483 13 28.5 C14.25876953 27.14068359 14.25876953 27.14068359 15.54296875 25.75390625 C22.68788495 18.38744226 22.68788495 18.38744226 26.9375 17.75 C33.29559908 18.60073157 37.84045051 25.03814523 42 29.5 C42.97337098 30.5135367 43.94861605 31.52527711 44.92578125 32.53515625 C47.30287909 35.00639657 49.65932801 37.49431317 52 40 C51.505 40.99 51.505 40.99 51 42 C50.39526855 41.36384766 49.79053711 40.72769531 49.16748047 40.07226562 C46.90954139 37.7118698 44.63853914 35.36575002 42.35742188 33.02783203 C41.37433505 32.01463089 40.3967076 30.99610205 39.42480469 29.97216797 C38.02390984 28.49822032 36.6042751 27.04476588 35.1796875 25.59375 C34.33132324 24.71396484 33.48295898 23.83417969 32.60888672 22.92773438 C30.12060045 20.79429855 30.12060045 20.79429855 26.98413086 20.44384766 C23.14724151 21.15892856 21.77766247 22.51658252 19.07421875 25.3046875 C18.19572266 26.19800781 17.31722656 27.09132812 16.41210938 28.01171875 C15.51298828 28.95660156 14.61386719 29.90148437 13.6875 30.875 C12.30981445 32.28072266 12.30981445 32.28072266 10.90429688 33.71484375 C6.44957116 37.9822979 6.44957116 37.9822979 3 43 C2.34 43 1.68 43 1 43 C0.67 28.81 0.34 14.62 0 0 Z " fill="#ADADAC" transform="translate(330,153)"/>
<path d="M0 0 C0.33 0 0.66 0 1 0 C1.66 1.98 2.32 3.96 3 6 C22.14 6.33 41.28 6.66 61 7 C61 7.66 61 8.32 61 9 C53.50694986 9.09273004 46.0139593 9.16378 38.52046585 9.20724869 C35.0407813 9.22811308 31.56148967 9.25640821 28.08203125 9.30175781 C24.08069107 9.35358227 20.07976281 9.37295453 16.078125 9.390625 C14.83009094 9.41127014 13.58205688 9.43191528 12.29620361 9.45318604 C10.55485138 9.45363922 10.55485138 9.45363922 8.77832031 9.45410156 C7.24609833 9.46742523 7.24609833 9.46742523 5.68292236 9.48101807 C2.27775143 8.87050888 1.06628372 7.72855116 -1 5 C-0.75 2.25 -0.75 2.25 0 0 Z " fill="#F9A90E" transform="translate(174,283)"/>
<path d="M0 0 C1.4219014 -0.01429802 1.4219014 -0.01429802 2.87252808 -0.02888489 C3.89959869 -0.02797348 4.92666931 -0.02706207 5.98486328 -0.02612305 C7.56450363 -0.03255074 7.56450363 -0.03255074 9.17605591 -0.03910828 C11.40707683 -0.04485934 13.6381165 -0.04534615 15.86914062 -0.04101562 C19.28434288 -0.03786104 22.69867482 -0.06128713 26.11376953 -0.08666992 C28.27913302 -0.08894335 30.44449884 -0.08964621 32.60986328 -0.08862305 C33.63288544 -0.09783279 34.65590759 -0.10704254 35.70993042 -0.11653137 C36.66416901 -0.11030258 37.61840759 -0.10407379 38.6015625 -0.09765625 C39.43936249 -0.09828568 40.27716248 -0.0989151 41.14035034 -0.0995636 C43.92349684 0.35528072 45.32596286 1.44487742 47.43017578 3.2746582 C47.10017578 4.5946582 46.77017578 5.9146582 46.43017578 7.2746582 C45.77017578 5.6246582 45.11017578 3.9746582 44.43017578 2.2746582 C28.92017578 2.2746582 13.41017578 2.2746582 -2.56982422 2.2746582 C-2.89982422 3.9246582 -3.22982422 5.5746582 -3.56982422 7.2746582 C-1.9850637 8.85941872 -0.3409042 8.43893138 1.8581543 8.47998047 C3.26950401 8.5098983 3.26950401 8.5098983 4.70936584 8.54042053 C5.73227219 8.55713303 6.75517853 8.57384552 7.80908203 8.59106445 C8.8508812 8.61184555 9.89268036 8.63262665 10.96604919 8.65403748 C14.30818825 8.71964877 17.65040864 8.77847151 20.99267578 8.8371582 C23.25244996 8.88033242 25.51221579 8.92394634 27.77197266 8.96801758 C33.32461999 9.07534187 38.87734899 9.17708632 44.43017578 9.2746582 C44.43017578 9.6046582 44.43017578 9.9346582 44.43017578 10.2746582 C37.48847556 10.32524549 30.54682263 10.36034399 23.60498047 10.38452148 C21.24200667 10.39459744 18.87904539 10.40825849 16.51611328 10.42553711 C13.1254569 10.44971545 9.73496494 10.46112519 6.34423828 10.4699707 C5.28274567 10.48029327 4.22125305 10.49061584 3.12759399 10.50125122 C2.14672821 10.50140228 1.16586243 10.50155334 0.15527344 10.50170898 C-1.14378433 10.50837082 -1.14378433 10.50837082 -2.46908569 10.51516724 C-4.56982422 10.2746582 -4.56982422 10.2746582 -6.56982422 8.2746582 C-6.81982422 5.2746582 -6.81982422 5.2746582 -6.56982422 2.2746582 C-4.10248938 -0.19267663 -3.39535604 0.01870793 0 0 Z " fill="#E38001" transform="translate(181.56982421875,299.725341796875)"/>
<path d="M0 0 C3 1 3 1 4.1875 3.0625 C4.455625 3.701875 4.72375 4.34125 5 5 C4.67 5.33 4.34 5.66 4 6 C3.73562557 7.9497614 3.47583062 9.90042069 3.25390625 11.85546875 C2.93045229 14.58741065 2.47414005 17.29062829 2 20 C-0.3125 19.8125 -0.3125 19.8125 -3 19 C-5.60188256 15.68035674 -6 14.30683959 -6 10 C-5.06295743 7.9697411 -4.07074592 5.96303418 -3 4 C-2.34 4 -1.68 4 -1 4 C-0.67 2.68 -0.34 1.36 0 0 Z " fill="#EA7604" transform="translate(356,187)"/>
<path d="M0 0 C0.66 0 1.32 0 2 0 C2 1.98 2 3.96 2 6 C2.99 6.33 3.98 6.66 5 7 C4.34 7 3.68 7 3 7 C3 7.99 3 8.98 3 10 C2.01 10 1.02 10 0 10 C0.66 10.66 1.32 11.32 2 12 C2.66 12 3.32 12 4 12 C4.33 11.34 4.66 10.68 5 10 C6 13 6 13 5 16 C2.69 16.33 0.38 16.66 -2 17 C-2.66 16.01 -3.32 15.02 -4 14 C-4.99 14.33 -5.98 14.66 -7 15 C-7.33 18.96 -7.66 22.92 -8 27 C-6.02 27 -4.04 27 -2 27 C-2 27.33 -2 27.66 -2 28 C-4.31 28 -6.62 28 -9 28 C-9 21.73 -9 15.46 -9 9 C-6.36 8.34 -3.72 7.68 -1 7 C0.35618499 5.87465895 0.35618499 5.87465895 0.0625 2.9375 C0.041875 1.968125 0.02125 0.99875 0 0 Z " fill="#F3AF02" transform="translate(164,228)"/>
<path d="M0 0 C0.309375 0.639375 0.61875 1.27875 0.9375 1.9375 C1.8345163 3.93610821 1.8345163 3.93610821 3 5 C5.16296273 5.20931897 7.3309471 5.36797069 9.5 5.5 C15.88888889 5.88888889 15.88888889 5.88888889 17 7 C17.08669432 8.4887186 17.10703494 9.981445 17.09765625 11.47265625 C17.09443359 12.37177734 17.09121094 13.27089844 17.08789062 14.19726562 C17.07951172 15.14279297 17.07113281 16.08832031 17.0625 17.0625 C17.05798828 18.01189453 17.05347656 18.96128906 17.04882812 19.93945312 C17.03700128 22.29299531 17.01906521 24.64650532 17 27 C12.38 27.33 7.76 27.66 3 28 C3 30.64 3 33.28 3 36 C2.34 36 1.68 36 1 36 C-0.42440318 29.82758621 -0.42440318 29.82758621 1.25 26.5625 C5.71619855 24.02488719 9.92713322 24.75843492 15 25 C15 19.39 15 13.78 15 8 C12.1228125 8.0928125 12.1228125 8.0928125 9.1875 8.1875 C3.51687006 8.37042355 3.51687006 8.37042355 1.125 6.65625 C-0.41566389 4.38805039 -0.21715415 2.67823455 0 0 Z " fill="#A8A8A8" transform="translate(129,200)"/>
<path d="M0 0 C0.33 0 0.66 0 1 0 C1.23238603 10.51828727 1.40972506 21.03595751 1.51812172 31.55629539 C1.57016638 36.44226551 1.6406718 41.32647116 1.75439453 46.21142578 C1.86359176 50.93189258 1.92295175 55.65067009 1.94877243 60.37230301 C1.96715534 62.16735035 2.00305626 63.96231204 2.05730057 65.75663376 C2.48671815 80.55892938 2.48671815 80.55892938 -1.29278564 85.39385986 C-3.74260923 87.86140018 -6.16433329 89.99483739 -9 92 C-9.66 91.01 -10.32 90.02 -11 89 C-10.01 88.01 -10.01 88.01 -9 87 C-8.01 87 -7.02 87 -6 87 C-5.855625 86.38125 -5.71125 85.7625 -5.5625 85.125 C-5 83 -5 83 -4 81 C-2.68 81 -1.36 81 0 81 C0 54.27 0 27.54 0 0 Z " fill="#FABD0E" transform="translate(300,145)"/>
<path d="M0 0 C0.66 0 1.32 0 2 0 C2.36471664 6.44332724 2.36471664 6.44332724 0.8125 8.8125 C-1.46837265 10.30686484 -4.19270598 12 -7 12 C-7.33 16.95 -7.66 21.9 -8 27 C-6.535625 27.144375 -5.07125 27.28875 -3.5625 27.4375 C0.875 27.875 0.875 27.875 2 29 C2.14257189 32.33618231 2.04228157 35.65975606 2 39 C-1.3 39 -4.6 39 -8 39 C-8 44.94 -8 50.88 -8 57 C-6.35 57 -4.7 57 -3 57 C-3 57.33 -3 57.66 -3 58 C-4.98 58 -6.96 58 -9 58 C-9 51.4 -9 44.8 -9 38 C-6.36 37.67 -3.72 37.34 -1 37 C0.26472065 35.94570314 0.26472065 35.94570314 0.25 33.5625 C0.1675 32.716875 0.085 31.87125 0 31 C-3.25077841 28.5364399 -3.25077841 28.5364399 -9 28 C-9 21.73 -9 15.46 -9 9 C-5.535 8.505 -5.535 8.505 -2 8 C0.34973818 6.10244856 0.34973818 6.10244856 0.125 2.875 C0.08375 1.92625 0.0425 0.9775 0 0 Z " fill="#D6AC24" transform="translate(164,257)"/>
<path d="M0 0 C-1.48224623 3.66066405 -3.51085933 5.29765788 -6.55639648 7.73803711 C-11.23938364 12.34830616 -12.00558988 16.0585342 -12.16486263 22.53503323 C-12.17234588 24.75501238 -12.13579567 26.97178154 -12.09765625 29.19140625 C-12.10331781 30.74797945 -12.11293994 32.3045428 -12.12632751 33.86106873 C-12.1508141 37.93058858 -12.12198494 41.9979984 -12.08154297 46.06732178 C-12.04976999 50.23049847 -12.06911318 54.3934155 -12.08398438 58.55664062 C-12.10564279 66.70502624 -12.0709047 74.85189622 -12 83 C-12.33 83 -12.66 83 -13 83 C-13.25599058 73.80286174 -13.45087066 64.60696704 -13.56993389 55.40703106 C-13.62711004 51.13391628 -13.70451265 46.86325521 -13.82983398 42.59155273 C-13.95024079 38.46104559 -14.01530157 34.33288196 -14.04364967 30.20075417 C-14.06382184 28.63250662 -14.10321786 27.0643734 -14.16303062 25.49713707 C-14.43912903 17.95589909 -14.45238593 11.74516111 -9.08694935 5.92636585 C-2.95523504 0 -2.95523504 0 0 0 Z " fill="#FDFDFD" transform="translate(345,237)"/>
<path d="M0 0 C3.25295114 -0.22179212 5.42797793 -0.28601103 8.375 1.1875 C10 3 10 3 10.5 5.5 C10 8 10 8 8.375 9.8125 C5.42797793 11.28601103 3.25295114 11.22179212 0 11 C0 14.3 0 17.6 0 21 C-0.33 21 -0.66 21 -1 21 C-1.08142927 19.2507786 -1.13938541 17.50045458 -1.1875 15.75 C-1.22230469 14.77546875 -1.25710937 13.8009375 -1.29296875 12.796875 C-0.9561997 9.58185317 0.0582698 8.49048004 2 6 C1.28776153 2.77825456 1.28776153 2.77825456 0 0 Z " fill="#160E04" transform="translate(155,226)"/>
<path d="M0 0 C1 4 1 4 0 6 C2.31 6.33 4.62 6.66 7 7 C6.06725891 8.12894876 5.12859878 9.25300876 4.1875 10.375 C3.66542969 11.00148437 3.14335937 11.62796875 2.60546875 12.2734375 C1 14 1 14 -2 16 C-2 15.34 -2 14.68 -2 14 C-2.66 13.67 -3.32 13.34 -4 13 C-3.67 11.02 -3.34 9.04 -3 7 C-5.31 8.98 -7.62 10.96 -10 13 C-10.66 12.67 -11.32 12.34 -12 12 C-8.04 8.04 -4.08 4.08 0 0 Z " fill="#171007" transform="translate(300,227)"/>
<path d="M0 0 C1.31016083 0.02220612 2.62032166 0.04441223 3.97018433 0.06729126 C5.05326874 0.08148354 5.05326874 0.08148354 6.15823364 0.09596252 C8.55006924 0.12969927 10.94139269 0.17779749 13.33297729 0.22598267 C14.98920342 0.25214375 16.64544388 0.27741124 18.30169678 0.30181885 C22.66500971 0.36852921 27.02802186 0.4474089 31.39108276 0.52877808 C35.84164874 0.60964042 40.29239139 0.67905641 44.74313354 0.74942017 C53.4790251 0.88922512 62.21463213 1.04187964 70.95016479 1.20254517 C70.95016479 1.53254517 70.95016479 1.86254517 70.95016479 2.20254517 C46.86016479 2.53254517 22.77016479 2.86254517 -2.04983521 3.20254517 C-2.70983521 5.51254517 -3.36983521 7.82254517 -4.04983521 10.20254517 C-4.70983521 9.87254517 -5.36983521 9.54254517 -6.04983521 9.20254517 C-5.0647031 0.33635625 -5.0647031 0.33635625 0 0 Z " fill="#FAAD0A" transform="translate(179.04983520507813,258.7974548339844)"/>
<path d="M0 0 C2.375 0.1875 2.375 0.1875 5 1 C6.1640625 3.55078125 6.1640625 3.55078125 7 6 C5.0238076 8.00301854 3.04425526 10.00249867 1.0625 12 C0.49853516 12.57234375 -0.06542969 13.1446875 -0.64648438 13.734375 C-2.07878776 15.17525505 -3.53741129 16.58987143 -5 18 C-5.33 18 -5.66 18 -6 18 C-6 16.35 -6 14.7 -6 13 C-4.68 13 -3.36 13 -2 13 C-1.93941406 12.39671875 -1.87882812 11.7934375 -1.81640625 11.171875 C-1.69072266 9.97304687 -1.69072266 9.97304687 -1.5625 8.75 C-1.48128906 7.96109375 -1.40007812 7.1721875 -1.31640625 6.359375 C-1.02365007 4.17635361 -0.57935581 2.1226818 0 0 Z " fill="#EEB40E" transform="translate(342,212)"/>
<path d="M0 0 C1.65 0 3.3 0 5 0 C-0.27101414 6.41069287 -6.09128152 12.18590512 -12 18 C-12.66 16.68 -13.32 15.36 -14 14 C-13.2575 13.278125 -12.515 12.55625 -11.75 11.8125 C-9.00104987 9.12671987 -9.00104987 9.12671987 -7 6.3125 C-4.80460123 3.77407018 -3.17229779 2.96931321 0 2 C0 1.34 0 0.68 0 0 Z " fill="#EBB412" transform="translate(258,264)"/>
<path d="M0 0 C0.33 0 0.66 0 1 0 C1 5.94 1 11.88 1 18 C3.97 17.67 6.94 17.34 10 17 C11.17673198 19.35346396 11.16623866 20.8806033 11.1875 23.5 C11.20167969 24.2940625 11.21585938 25.088125 11.23046875 25.90625 C11 28 11 28 9 30 C6.36 30 3.72 30 1 30 C1 35.94 1 41.88 1 48 C0.67 48 0.34 48 0 48 C0 41.73 0 35.46 0 29 C2.97 28.34 5.94 27.68 9 27 C9.16687448 24.58354218 9.16687448 24.58354218 9 22 C6.63333333 19.23333333 6.63333333 19.23333333 0 19 C0 12.73 0 6.46 0 0 Z " fill="#D7B02B" transform="translate(155,178)"/>
<path d="M0 0 C0 3.8148669 -1.06277405 5.72675616 -3 9 C-7.31578947 13 -7.31578947 13 -10 13 C-10.22945313 13.61230469 -10.45890625 14.22460938 -10.6953125 14.85546875 C-12.38551377 17.63367383 -13.86768702 18.15687083 -16.875 19.3125 C-17.73867188 19.65925781 -18.60234375 20.00601562 -19.4921875 20.36328125 C-22.19552057 21.04964152 -23.38675247 20.76528348 -26 20 C-25.37818848 19.80696289 -24.75637695 19.61392578 -24.11572266 19.41503906 C-16.90773312 16.89900406 -12.52975986 13.28623165 -7.375 7.75 C-6.65699219 7.00492187 -5.93898438 6.25984375 -5.19921875 5.4921875 C-3.4514681 3.67452683 -1.7194325 1.84440058 0 0 Z " fill="#D6AA16" transform="translate(288,292)"/>
<path d="M0 0 C3.32635882 1.52572656 4.95563002 2.93344504 7 6 C5.0625 5.625 5.0625 5.625 3 5 C2.67 4.34 2.34 3.68 2 3 C1.34 3 0.68 3 0 3 C-0.33 3.99 -0.66 4.98 -1 6 C-1.99 6.495 -1.99 6.495 -3 7 C-4.62734766 10.34510352 -5 12.18835834 -5 16 C-4.06716704 18.20067421 -4.06716704 18.20067421 -3 20 C-4.17825358 19.09827532 -5.34231577 18.17798498 -6.5 17.25 C-7.1496875 16.73953125 -7.799375 16.2290625 -8.46875 15.703125 C-10 14 -10 14 -10 10 C-7.8125 7.421875 -7.8125 7.421875 -5 4.75 C-4.071875 3.85796875 -3.14375 2.9659375 -2.1875 2.046875 C-1.465625 1.37140625 -0.74375 0.6959375 0 0 Z " fill="#D77614" transform="translate(356,185)"/>
<path d="M0 0 C1.98 0 3.96 0 6 0 C3.36 8.25 0.72 16.5 -2 25 C-2.33 25 -2.66 25 -3 25 C-2.88570603 23.22844346 -2.75816963 21.45773771 -2.625 19.6875 C-2.55539063 18.70136719 -2.48578125 17.71523438 -2.4140625 16.69921875 C-2 14 -2 14 0 11 C0.24187651 8.25481679 0.24187651 8.25481679 0.125 5.3125 C0.10695312 4.31863281 0.08890625 3.32476562 0.0703125 2.30078125 C0.04710937 1.54152344 0.02390625 0.78226562 0 0 Z " fill="#F1B90D" transform="translate(239,282)"/>
<path d="M0 0 C2.86724686 0.57344937 3.8614515 0.8614515 6 3 C6.25396729 5.08055115 6.25396729 5.08055115 6.25878906 7.67749023 C6.26824554 9.1342643 6.26824554 9.1342643 6.27789307 10.62046814 C6.2738446 11.67254959 6.26979614 12.72463104 6.265625 13.80859375 C6.26753845 14.88625504 6.2694519 15.96391632 6.27142334 17.07423401 C6.27278619 19.35653924 6.26908284 21.63885219 6.26074219 23.92114258 C6.25005465 27.41961057 6.26062897 30.9175638 6.2734375 34.41601562 C6.27211572 36.63020947 6.26955294 38.84440299 6.265625 41.05859375 C6.26967346 42.10865097 6.27372192 43.15870819 6.27789307 44.24058533 C6.27158875 45.2149202 6.26528442 46.18925507 6.25878906 47.19311523 C6.25719788 48.05090073 6.25560669 48.90868622 6.25396729 49.79246521 C6 52 6 52 4 55 C3.34 54.67 2.68 54.34 2 54 C2.66 53.01 3.32 52.02 4 51 C4.31520201 48.9243664 4.31520201 48.9243664 4.29052734 46.6237793 C4.30328705 45.7424382 4.31604675 44.86109711 4.32919312 43.95304871 C4.33141876 43.00303482 4.33364441 42.05302094 4.3359375 41.07421875 C4.3459227 39.60369804 4.3459227 39.60369804 4.35610962 38.10346985 C4.36623843 36.02806475 4.37092657 33.95262706 4.37060547 31.87719727 C4.37496914 28.70989869 4.41126048 25.54400422 4.44921875 22.37695312 C4.45508883 20.35937976 4.45905694 18.34179978 4.4609375 16.32421875 C4.47530853 15.38027756 4.48967957 14.43633636 4.50448608 13.46379089 C4.46441055 7.6621199 3.75271228 4.48289694 0 0 Z " fill="#FEB110" transform="translate(273,169)"/>
<path d="M0 0 C1.14926266 0.95421808 2.29430541 1.91352045 3.4375 2.875 C4.39462891 3.67550781 4.39462891 3.67550781 5.37109375 4.4921875 C7 6 7 6 8 8 C6.3767313 8.6708712 4.75132422 9.33657029 3.125 10 C1.76761719 10.556875 1.76761719 10.556875 0.3828125 11.125 C-2 12 -2 12 -4 12 C-3.52309796 10.37433394 -3.04340334 8.74948689 -2.5625 7.125 C-2.29566406 6.22007812 -2.02882812 5.31515625 -1.75390625 4.3828125 C-1 2 -1 2 0 0 Z " fill="#EEDFE3" transform="translate(251,295)"/>
<path d="M0 0 C0.66 0 1.32 0 2 0 C2.25 3.3125 2.25 3.3125 2 7 C0.125 8.9375 0.125 8.9375 -2 10 C-2.66 10 -3.32 10 -4 10 C-4 10.99 -4 11.98 -4 13 C-4.99 13.66 -5.98 14.32 -7 15 C-7.58481121 17.88595946 -7.58481121 17.88595946 -7.6875 21.125 C-7.75324219 22.22070312 -7.81898438 23.31640625 -7.88671875 24.4453125 C-7.92410156 25.28835937 -7.96148437 26.13140625 -8 27 C-6.02 27 -4.04 27 -2 27 C-2 27.33 -2 27.66 -2 28 C-4.31 28 -6.62 28 -9 28 C-9 21.73 -9 15.46 -9 9 C-6.36 8.34 -3.72 7.68 -1 7 C0.35618499 5.87465895 0.35618499 5.87465895 0.0625 2.9375 C0.041875 1.968125 0.02125 0.99875 0 0 Z " fill="#E8B71F" transform="translate(164,228)"/>
<path d="M0 0 C0.33 0 0.66 0 1 0 C1 6.6 1 13.2 1 20 C-3.62 20.33 -8.24 20.66 -13 21 C-13 23.64 -13 26.28 -13 29 C-13.66 29 -14.32 29 -15 29 C-16.25 22.375 -16.25 22.375 -14 19 C-10.7421875 18.70703125 -10.7421875 18.70703125 -6.875 18.8125 C-3.471875 18.9053125 -3.471875 18.9053125 0 19 C0 12.73 0 6.46 0 0 Z " fill="#414141" transform="translate(145,207)"/>
<path d="M0 0 C6.0546875 -0.1953125 6.0546875 -0.1953125 8 0 C10 2 10 2 10.375 4.4375 C10 7 10 7 8.375 8.8125 C5.42797793 10.28601103 3.25295114 10.22179212 0 10 C0 9.67 0 9.34 0 9 C1.65 9 3.3 9 5 9 C5 6.36 5 3.72 5 1 C3.35 1 1.7 1 0 1 C0 0.67 0 0.34 0 0 Z " fill="#211405" transform="translate(155,315)"/>
<path d="M0 0 C1.65 0 3.3 0 5 0 C1.32167983 4.52615993 -2.41086363 8.39424999 -7 12 C-7.375 9.25 -7.375 9.25 -7 6 C-4.0625 3.75 -4.0625 3.75 -1 2 C-0.67 1.34 -0.34 0.68 0 0 Z " fill="#E9B412" transform="translate(277,245)"/>
<path d="M0 0 C0.66 0.33 1.32 0.66 2 1 C2 2.32 2 3.64 2 5 C3.32 4.67 4.64 4.34 6 4 C6.33 5.98 6.66 7.96 7 10 C9.97 10.495 9.97 10.495 13 11 C12.67 11.99 12.34 12.98 12 14 C6.830455 12.59012409 3.24658648 9.13677955 0 5 C-0.765625 2.8359375 -0.765625 2.8359375 -1 1 C-0.67 0.67 -0.34 0.34 0 0 Z " fill="#DBB11D" transform="translate(258,283)"/>
<path d="M0 0 C0 3.60777515 -0.9904432 5.06295544 -3 8 C-3.99 8.495 -3.99 8.495 -5 9 C-5.99 10.485 -5.99 10.485 -7 12 C-7.66 11.67 -8.32 11.34 -9 11 C-8.34 12.32 -7.68 13.64 -7 15 C-9.31 15 -11.62 15 -14 15 C-9.59156563 9.70987876 -4.92440206 4.81191572 0 0 Z " fill="#DDB115" transform="translate(273,268)"/>
<path d="M0 0 C-1.98 0.99 -1.98 0.99 -4 2 C-4 2.99 -4 3.98 -4 5 C-2.35 5.33 -0.7 5.66 1 6 C0.67 6.66 0.34 7.32 0 8 C-3.375 8.75 -3.375 8.75 -7 9 C-7.99 8.34 -8.98 7.68 -10 7 C-10.33 7.66 -10.66 8.32 -11 9 C-11 8.01 -11 7.02 -11 6 C-10.01 5.67 -9.02 5.34 -8 5 C-7.34 5.33 -6.68 5.66 -6 6 C-6 4.02 -6 2.04 -6 0 C-3.50907189 -1.24546405 -2.58919267 -0.7767578 0 0 Z M-13 8 C-13 11 -13 11 -13 11 Z " fill="#F3AC01" transform="translate(224,314)"/>
<path d="M0 0 C0.99 0.33 1.98 0.66 3 1 C-0.96 4.96 -4.92 8.92 -9 13 C-11 10 -11 10 -11 8 C-10.195625 7.731875 -9.39125 7.46375 -8.5625 7.1875 C-7.716875 6.795625 -6.87125 6.40375 -6 6 C-5.67 5.01 -5.34 4.02 -5 3 C-3 1.875 -3 1.875 -1 1 C-0.67 0.67 -0.34 0.34 0 0 Z " fill="#170D07" transform="translate(295,243)"/>
<path d="M0 0 C0.66 0.33 1.32 0.66 2 1 C2.84798881 4.85449459 3.0248085 7.83461 2.4375 11.75 C1.61665659 15.14079418 1.61665659 15.14079418 4 18 C1.525 17.01 1.525 17.01 -1 16 C-0.67 13.69 -0.34 11.38 0 9 C-0.66 9 -1.32 9 -2 9 C-1.125 1.125 -1.125 1.125 0 0 Z " fill="#F1B416" transform="translate(233,302)"/>
<path d="M0 0 C0.33 0.66 0.66 1.32 1 2 C-1.26676258 6.42018704 -3.23350921 9.41116974 -8 11 C-8.99 12.485 -8.99 12.485 -10 14 C-10.99 13.67 -11.98 13.34 -13 13 C-8.71 8.71 -4.42 4.42 0 0 Z " fill="#251405" transform="translate(299,267)"/>
<path d="M0 0 C0.66 0.33 1.32 0.66 2 1 C-3.44183088 7.68567794 -9.47427422 13.38107483 -16 19 C-16.66 18.67 -17.32 18.34 -18 18 C-12.06 12.06 -6.12 6.12 0 0 Z " fill="#171717" transform="translate(354,173)"/>
<path d="M0 0 C6.40818182 -0.36272727 6.40818182 -0.36272727 8.9375 1.1875 C10.37794659 3.64473241 10.4305182 5.20163168 10 8 C6.3558226 10.4294516 4.28758728 10.16179575 0 10 C0 9.67 0 9.34 0 9 C1.65 9 3.3 9 5 9 C6.00016187 6.99967627 6.49396008 5.16874252 7 3 C6.34 3 5.68 3 5 3 C5 2.34 5 1.68 5 1 C3.35 1 1.7 1 0 1 C0 0.67 0 0.34 0 0 Z " fill="#2C1A04" transform="translate(155,197)"/>
<path d="M0 0 C0 1.65 0 3.3 0 5 C-0.99 5 -1.98 5 -3 5 C-3 5.66 -3 6.32 -3 7 C-3.66 7 -4.32 7 -5 7 C-5.33 8.32 -5.66 9.64 -6 11 C-7.65 11 -9.3 11 -11 11 C-1.73033708 0 -1.73033708 0 0 0 Z " fill="#271504" transform="translate(343,224)"/>
<path d="M0 0 C0 3.12900213 -0.42451317 4.37418862 -2 7 C-2.99 7.495 -2.99 7.495 -4 8 C-5.13350534 10.01669827 -5.13350534 10.01669827 -6 12 C-7.65 12 -9.3 12 -11 12 C-7.49102731 7.81576108 -3.91939465 3.80411834 0 0 Z " fill="#DBB218" transform="translate(317,224)"/>
<path d="M0 0 C1.65 0 3.3 0 5 0 C1.6189962 4.13621084 -1.66590534 7.81316569 -6 11 C-6.33 10.01 -6.66 9.02 -7 8 C-6.34 7.34 -5.68 6.68 -5 6 C-4.01 6 -3.02 6 -2 6 C-1.855625 5.38125 -1.71125 4.7625 -1.5625 4.125 C-1 2 -1 2 0 0 Z " fill="#E4B515" transform="translate(296,226)"/>
<path d="M0 0 C0.66 0.33 1.32 0.66 2 1 C2 1.66 2 2.32 2 3 C1.01 3.33 0.02 3.66 -1 4 C-1.2475 4.804375 -1.495 5.60875 -1.75 6.4375 C-3 9 -3 9 -6.625 10.3125 C-7.73875 10.539375 -8.8525 10.76625 -10 11 C-6.79239749 7.19364503 -3.59253891 3.45436433 0 0 Z " fill="#DBB115" transform="translate(290,251)"/>
<path d="M0 0 C1.875 0.25 1.875 0.25 4 1 C5.25 3.0625 5.25 3.0625 6 5 C5.34 5 4.68 5 4 5 C4 5.66 4 6.32 4 7 C2.35 6.67 0.7 6.34 -1 6 C-1 3 -1 3 0 0 Z " fill="#020408" transform="translate(281,286)"/>
<path d="M0 0 C1.65 0.33 3.3 0.66 5 1 C4.67 1.66 4.34 2.32 4 3 C3.92966231 4.87379605 3.9156978 6.75001102 3.9375 8.625 C3.95103516 10.12933594 3.95103516 10.12933594 3.96484375 11.6640625 C3.97644531 12.43492187 3.98804688 13.20578125 4 14 C3.01 14 2.02 14 1 14 C1 13.01 1 12.02 1 11 C0.34 10.67 -0.32 10.34 -1 10 C-0.34 9.34 0.32 8.68 1 8 C1.23779528 4.9086614 0.98965019 2.96895056 0 0 Z " fill="#FAAD0C" transform="translate(236,280)"/>
<path d="M0 0 C0.99 0.66 1.98 1.32 3 2 C3.4305182 4.79836832 3.37794659 6.35526759 1.9375 8.8125 C-0.99268751 10.60842137 -3.6472953 10.18977574 -7 10 C-7 9.67 -7 9.34 -7 9 C-5.02 9 -3.04 9 -1 9 C-0.67 6.03 -0.34 3.06 0 0 Z " fill="#312004" transform="translate(162,168)"/>
<path d="M0 0 C2.97 0 5.94 0 9 0 C9 0.66 9 1.32 9 2 C7.88625 2.45375 6.7725 2.9075 5.625 3.375 C2.03800992 4.72465986 2.03800992 4.72465986 0 7 C0 4.69 0 2.38 0 0 Z " fill="#F8BC08" transform="translate(156,296)"/>
<path d="M0 0 C-1.40844718 3.21524305 -3.10344786 5.32183868 -5.625 7.75 C-6.57246094 8.67039063 -6.57246094 8.67039063 -7.5390625 9.609375 C-8.02117187 10.06828125 -8.50328125 10.5271875 -9 11 C-9.99 10.67 -10.98 10.34 -12 10 C-10.38113585 8.32737283 -8.7547271 6.66204463 -7.125 5 C-6.22007812 4.071875 -5.31515625 3.14375 -4.3828125 2.1875 C-2 0 -2 0 0 0 Z " fill="#CAC9CC" transform="translate(345,237)"/>
<path d="M0 0 C0.33 0.66 0.66 1.32 1 2 C0.67 2.66 0.34 3.32 0 4 C-1.98 4 -3.96 4 -6 4 C-6 4.66 -6 5.32 -6 6 C-5.34 6 -4.68 6 -4 6 C-4.33 7.32 -4.66 8.64 -5 10 C-5.99 9.67 -6.98 9.34 -8 9 C-8 7.02 -8 5.04 -8 3 C-6.865625 2.690625 -5.73125 2.38125 -4.5625 2.0625 C-1.21224901 1.37075469 -1.21224901 1.37075469 0 0 Z " fill="#EBBA10" transform="translate(164,322)"/>
<path d="M0 0 C0.66 0 1.32 0 2 0 C2.36471664 6.44332724 2.36471664 6.44332724 0.8125 8.8125 C-1.95920046 10.62844168 -4.64608074 12 -8 12 C-8 11.01 -8 10.02 -8 9 C-5.69 8.34 -3.38 7.68 -1 7 C-0.25042843 3.52852158 -0.25042843 3.52852158 0 0 Z " fill="#E6B615" transform="translate(164,257)"/>
<path d="M0 0 C1.65 0.33 3.3 0.66 5 1 C4.06725891 2.12894876 3.12859878 3.25300876 2.1875 4.375 C1.66542969 5.00148437 1.14335937 5.62796875 0.60546875 6.2734375 C-1 8 -1 8 -4 10 C-4 8.35 -4 6.7 -4 5 C-2.68 5 -1.36 5 0 5 C0 3.35 0 1.7 0 0 Z " fill="#E6BA15" transform="translate(340,220)"/>
<path d="M0 0 C-5.54165256 3.77304004 -9.34454208 4.54330269 -16 4 C-13.41588269 2.27725513 -11.45097344 1.31104478 -8.5625 0.3125 C-7.41974609 -0.09548828 -7.41974609 -0.09548828 -6.25390625 -0.51171875 C-3.78170279 -1.04729142 -2.37016716 -0.80445309 0 0 Z " fill="#D3A81B" transform="translate(259,315)"/>
<path d="M0 0 C3.25295114 -0.22179212 5.42797793 -0.28601103 8.375 1.1875 C10 3 10 3 10.25 5.6875 C10.1675 6.450625 10.085 7.21375 10 8 C9.01 8 8.02 8 7 8 C7 6.02 7 4.04 7 2 C4.69 1.67 2.38 1.34 0 1 C0 0.67 0 0.34 0 0 Z " fill="#362506" transform="translate(155,226)"/>
<path d="M0 0 C1.28497537 3.85492611 0.4052209 5.40346836 -0.9375 9.1875 C-1.31777344 10.27417969 -1.69804687 11.36085938 -2.08984375 12.48046875 C-2.39019531 13.31191406 -2.69054687 14.14335937 -3 15 C-3.33 15 -3.66 15 -4 15 C-3.85915204 13.20793453 -3.71216299 11.41635083 -3.5625 9.625 C-3.48128906 8.62726563 -3.40007812 7.62953125 -3.31640625 6.6015625 C-3 4 -3 4 -2 2 C-1.34 2 -0.68 2 0 2 C0 1.34 0 0.68 0 0 Z " fill="#DFB517" transform="translate(240,292)"/>
<path d="M0 0 C0.99 0.33 1.98 0.66 3 1 C4.32 6.4 4.32 6.4 3 8.875 C0.01705366 10.55290731 -2.64970039 10.1896396 -6 10 C-6 9.67 -6 9.34 -6 9 C-4.02 9 -2.04 9 0 9 C0.93380961 4.46859347 0.93380961 4.46859347 0 0 Z " fill="#331F03" transform="translate(161,256)"/>
<path d="M0 0 C0.99 0.33 1.98 0.66 3 1 C3 1.66 3 2.32 3 3 C3.66 3 4.32 3 5 3 C5.125 5.375 5.125 5.375 5 8 C4.34 8.66 3.68 9.32 3 10 C2.01 9.67 1.02 9.34 0 9 C0.99 8.67 1.98 8.34 3 8 C2.32911491 6.65822982 1.64130071 5.32480134 0.9375 4 C0 2 0 2 0 0 Z " fill="#F1AC00" transform="translate(224,314)"/>
<path d="M0 0 C1.63800475 4.5500132 0.83757562 9.07850298 -1.0625 13.4375 C-1.5265625 14.2109375 -1.5265625 14.2109375 -2 15 C-2.66 15 -3.32 15 -4 15 C-3.52229477 13.06213915 -3.04278429 11.12472326 -2.5625 9.1875 C-2.29566406 8.10855469 -2.02882812 7.02960938 -1.75390625 5.91796875 C-1.23922588 3.9259157 -0.65062825 1.95188476 0 0 Z " fill="#321E04" transform="translate(241,292)"/>
<path d="M0 0 C-2.31 2.31 -4.62 4.62 -7 7 C-7.33 5.68 -7.66 4.36 -8 3 C-7.34 3 -6.68 3 -6 3 C-6 2.01 -6 1.02 -6 0 C-4 -1 -4 -1 0 0 Z " fill="#E6B814" transform="translate(303,264)"/>
<path d="M0 0 C0.33 0.99 0.66 1.98 1 3 C-0.9628843 6.1708131 -2.12536 7.74158364 -5.75 8.8125 C-6.4925 8.874375 -7.235 8.93625 -8 9 C-7.04270084 7.87411986 -6.08412105 6.7493285 -5.125 5.625 C-4.59132813 4.99851563 -4.05765625 4.37203125 -3.5078125 3.7265625 C-2.38567993 2.44163349 -1.20628025 1.20628025 0 0 Z " fill="#251505" transform="translate(319,247)"/>
<path d="M0 0 C0.33 0.66 0.66 1.32 1 2 C2.32 2.33 3.64 2.66 5 3 C2.69 4.98 0.38 6.96 -2 9 C-2 7.68 -2 6.36 -2 5 C-1.34 5 -0.68 5 0 5 C-0.33 4.01 -0.66 3.02 -1 2 C-0.67 1.34 -0.34 0.68 0 0 Z " fill="#E8B913" transform="translate(289,270)"/>
<path d="M0 0 C0.99 0 1.98 0 3 0 C4.20272819 2.40545638 4.10071472 3.94996953 4.0625 6.625 C4.05347656 7.44226563 4.04445312 8.25953125 4.03515625 9.1015625 C4.02355469 9.72804687 4.01195312 10.35453125 4 11 C3.01 11.495 3.01 11.495 2 12 C2.04125 10.88625 2.0825 9.7725 2.125 8.625 C2.41121859 4.95633975 2.41121859 4.95633975 0 3 C0 2.01 0 1.02 0 0 Z " fill="#E6B514" transform="translate(162,195)"/>
<path d="M0 0 C0 3.86695678 -1.41909971 6.5088452 -3 10 C-4.32 9.01 -5.64 8.02 -7 7 C-4.69 4.69 -2.38 2.38 0 0 Z " fill="#1E1403" transform="translate(271,256)"/>
<path d="M0 0 C0.33 1.32 0.66 2.64 1 4 C-0.98 5.32 -2.96 6.64 -5 8 C-5.66 7.67 -6.32 7.34 -7 7 C-4.69 4.69 -2.38 2.38 0 0 Z " fill="#2C0F02" transform="translate(366,200)"/>
<path d="M0 0 C1.98 0 3.96 0 6 0 C4.35 1.98 2.7 3.96 1 6 C0.34 5.01 -0.32 4.02 -1 3 C-0.67 2.01 -0.34 1.02 0 0 Z " fill="#140D06" transform="translate(272,263)"/>
<path d="M0 0 C0.66 0 1.32 0 2 0 C1.67 1.98 1.34 3.96 1 6 C1.66 6.33 2.32 6.66 3 7 C1.02 7 -0.96 7 -3 7 C-3 6.01 -3 5.02 -3 4 C-2.34 3.67 -1.68 3.34 -1 3 C-0.67 2.01 -0.34 1.02 0 0 Z " fill="#F5BF0C" transform="translate(159,219)"/>
<path d="M0 0 C0.66 0 1.32 0 2 0 C2.3125 2.8125 2.3125 2.8125 2 6 C-0.375 7.9375 -0.375 7.9375 -3 9 C-3.66 8.67 -4.32 8.34 -5 8 C-4.175 7.236875 -3.35 6.47375 -2.5 5.6875 C0.34055197 3.24565858 0.34055197 3.24565858 0 0 Z " fill="#351F07" transform="translate(348,215)"/>
<path d="M0 0 C2.31 0.33 4.62 0.66 7 1 C2.25 5.875 2.25 5.875 0 7 C0 4.69 0 2.38 0 0 Z " fill="#1D0704" transform="translate(351,183)"/>
<path d="M0 0 C0.99 0.33 1.98 0.66 3 1 C2.01 2.485 2.01 2.485 1 4 C0.34 4 -0.32 4 -1 4 C-1.33 5.32 -1.66 6.64 -2 8 C-2.6875 5.6875 -2.6875 5.6875 -3 3 C-1.5625 1.1875 -1.5625 1.1875 0 0 Z " fill="#1F1F1F" transform="translate(133,256)"/>
<path d="M0 0 C0.33 0.66 0.66 1.32 1 2 C0.06553465 4.03144641 -0.93224776 6.03533587 -2 8 C-3.32 7.34 -4.64 6.68 -6 6 C-4.02 4.02 -2.04 2.04 0 0 Z " fill="#291604" transform="translate(326,240)"/>
<path d="M0 0 C0 3 0 3 -1 5 C-0.34 5 0.32 5 1 5 C0.67 5.66 0.34 6.32 0 7 C-1.98 7 -3.96 7 -6 7 C-4.02 4.69 -2.04 2.38 0 0 Z " fill="#DBB019" transform="translate(305,236)"/>
<path d="M0 0 C0.66 0.33 1.32 0.66 2 1 C1.67 3.97 1.34 6.94 1 10 C0.34 10 -0.32 10 -1 10 C-2.25 3.375 -2.25 3.375 0 0 Z " fill="#B9B9B9" transform="translate(131,226)"/>
<path d="M0 0 C0.598125 0.495 1.19625 0.99 1.8125 1.5 C3.97029994 3.28276418 3.97029994 3.28276418 7 3 C7 3.99 7 4.98 7 6 C4.625 6.1875 4.625 6.1875 2 6 C0 3 0 3 0 0 Z " fill="#2D1306" transform="translate(352,205)"/>
<path d="M0 0 C0.25 2.3125 0.25 2.3125 0 5 C-2 6.8125 -2 6.8125 -4 8 C-4.36780384 3.46375267 -4.36780384 3.46375267 -2.5625 1.1875 C-1 0 -1 0 0 0 Z " fill="#E17612" transform="translate(319,204)"/>
<path d="M0 0 C2 3.75 2 3.75 2 6 C0.35 6.33 -1.3 6.66 -3 7 C-1.125 1.125 -1.125 1.125 0 0 Z " fill="#D4CACD" transform="translate(250,300)"/>
<path d="M0 0 C1.98 1.65 3.96 3.3 6 5 C5.67 5.99 5.34 6.98 5 8 C4.67 7.01 4.34 6.02 4 5 C2.68 5 1.36 5 0 5 C0 3.35 0 1.7 0 0 Z " fill="#CB7218" transform="translate(363,191)"/>
<path d="M0 0 C0.33 0.66 0.66 1.32 1 2 C1.99 2.33 2.98 2.66 4 3 C1.03 5.475 1.03 5.475 -2 8 C-2 6.68 -2 5.36 -2 4 C-1.34 3.67 -0.68 3.34 0 3 C0 2.01 0 1.02 0 0 Z " fill="#E6BA15" transform="translate(276,284)"/>
<path d="M0 0 C1.65 0 3.3 0 5 0 C3.35 1.98 1.7 3.96 0 6 C-1.125 2.25 -1.125 2.25 0 0 Z " fill="#E5B818" transform="translate(316,245)"/>
<path d="M0 0 C-2.97 2.475 -2.97 2.475 -6 5 C-6.33 3.35 -6.66 1.7 -7 0 C-3.86650268 -1.04449911 -3.01031744 -0.93423645 0 0 Z " fill="#E6B818" transform="translate(328,239)"/>
<path d="M0 0 C1.98 0.495 1.98 0.495 4 1 C3.625 2.9375 3.625 2.9375 3 5 C2.01 5.495 2.01 5.495 1 6 C0.34 5.34 -0.32 4.68 -1 4 C-0.34 4 0.32 4 1 4 C0.67 2.68 0.34 1.36 0 0 Z " fill="#0D0908" transform="translate(306,228)"/>
<path d="M0 0 C1.32 0.66 2.64 1.32 4 2 C3.01 3.32 2.02 4.64 1 6 C-0.32 5.34 -1.64 4.68 -3 4 C-2.01 3.67 -1.02 3.34 0 3 C0 2.01 0 1.02 0 0 Z " fill="#DA7B1E" transform="translate(357,203)"/>
<path d="M0 0 C3.36720387 1.39332574 4.9859524 2.9789286 7 6 C5.0625 5.625 5.0625 5.625 3 5 C2.67 4.34 2.34 3.68 2 3 C-0.02463255 2.34786708 -0.02463255 2.34786708 -2 2 C-1.34 1.34 -0.68 0.68 0 0 Z " fill="#BE6D21" transform="translate(356,185)"/>
<path d="M0 0 C0.99 0.33 1.98 0.66 3 1 C3 3.97 3 6.94 3 10 C1.68 9.67 0.36 9.34 -1 9 C-0.34 8.34 0.32 7.68 1 7 C1.20872719 4.21697081 1.25640898 2.51281795 0 0 Z " fill="#E4B619" transform="translate(163,168)"/>
<path d="M0 0 C1 3 1 3 0 6 C-1.65 6 -3.3 6 -5 6 C-3.35 4.02 -1.7 2.04 0 0 Z " fill="#D2A718" transform="translate(299,281)"/>
<path d="M0 0 C0 2 0 4 0 6 C-1.98 6.33 -3.96 6.66 -6 7 C-4.02 4.69 -2.04 2.38 0 0 Z " fill="#211504" transform="translate(258,269)"/>
<path d="M0 0 C0.33 0 0.66 0 1 0 C1 1.65 1 3.3 1 5 C0.01 5 -0.98 5 -2 5 C-2 5.66 -2 6.32 -2 7 C-2.66 6.67 -3.32 6.34 -4 6 C-1.125 1.125 -1.125 1.125 0 0 Z " fill="#1C0F06" transform="translate(342,224)"/>
<path d="M0 0 C0.33 0.99 0.66 1.98 1 3 C0 5 0 5 -3.0625 6.125 C-4.031875 6.41375 -5.00125 6.7025 -6 7 C-4.02 4.69 -2.04 2.38 0 0 Z " fill="#D3AE1E" transform="translate(324,217)"/>
<path d="M0 0 C1.2065625 0.0309375 1.2065625 0.0309375 2.4375 0.0625 C0.7875 1.7125 -0.8625 3.3625 -2.5625 5.0625 C-3.125 3.125 -3.125 3.125 -3.5625 1.0625 C-2.5625 0.0625 -2.5625 0.0625 0 0 Z " fill="#DA7818" transform="translate(363.5625,199.9375)"/>
</svg>
